<?xml version="1.0" encoding="utf-8"?>
<!-- Generator: Adobe Illustrator 16.0.0, SVG Export Plug-In . SVG Version: 6.00 Build 0)  -->
<!DOCTYPE svg PUBLIC "-//W3C//DTD SVG 1.1//EN" "http://www.w3.org/Graphics/SVG/1.1/DTD/svg11.dtd" [
	<!ENTITY st0 "fill:none;stroke:#E3D5E7;stroke-width:3;stroke-linejoin:round;stroke-miterlimit:11.4739;">
	<!ENTITY st1 "fill:none;stroke:#A3D4C6;stroke-width:1;stroke-linecap:square;stroke-miterlimit:14.3349;">
	<!ENTITY st2 "fill-rule:evenodd;clip-rule:evenodd;fill:#A3D4C6;">
	<!ENTITY st3 "fill:none;stroke:#E3D5E7;stroke-width:1;stroke-linejoin:round;stroke-miterlimit:14.3349;">
	<!ENTITY st4 "fill:none;stroke:#E3D5E7;stroke-width:3;stroke-linecap:square;stroke-linejoin:bevel;stroke-miterlimit:14.3349;">
	<!ENTITY st5 "fill-rule:evenodd;clip-rule:evenodd;fill:#E3D5E7;">
	<!ENTITY st6 "fill:none;stroke:#E3D5E7;stroke-width:1;stroke-linecap:square;stroke-linejoin:bevel;stroke-miterlimit:14.3349;">
	<!ENTITY st7 "fill:none;stroke:#E3D5E7;stroke-width:1;stroke-linecap:square;stroke-miterlimit:14.3349;">
	<!ENTITY st8 "fill-rule:evenodd;clip-rule:evenodd;fill:#89B2DE;">
	<!ENTITY st9 "fill-rule:evenodd;clip-rule:evenodd;fill:#89B2DE;stroke:#38559B;stroke-miterlimit:2;">
	<!ENTITY st10 "fill:none;stroke:#E3D5E7;stroke-width:6;stroke-linecap:square;stroke-linejoin:bevel;stroke-miterlimit:14.3349;">
	<!ENTITY st11 "fill-rule:evenodd;clip-rule:evenodd;fill:#BFC0C0;">
	<!ENTITY st12 "fill:none;stroke:#E3D5E7;stroke-width:4;stroke-linecap:square;stroke-linejoin:bevel;stroke-miterlimit:14.3349;">
	<!ENTITY st13 "fill-rule:evenodd;clip-rule:evenodd;fill:#FCFDFE;">
	<!ENTITY st14 "fill:none;stroke:#BFC0C0;stroke-width:1;stroke-linecap:square;stroke-linejoin:bevel;stroke-miterlimit:14.3349;">
	<!ENTITY st15 "fill:none;stroke:#FCFDFE;stroke-width:1;stroke-linecap:square;stroke-miterlimit:14.3349;">
	<!ENTITY st16 "fill-rule:evenodd;clip-rule:evenodd;fill:#9CD1AE;">
	<!ENTITY st17 "fill-rule:evenodd;clip-rule:evenodd;fill:#E59EAA;stroke:#E76272;stroke-miterlimit:2;">
	<!ENTITY st18 "fill-rule:evenodd;clip-rule:evenodd;fill:#BCE2A6;stroke:#7CAF5B;stroke-miterlimit:2;">
	<!ENTITY st19 "fill:none;stroke:#9CD1AE;stroke-width:1;stroke-linecap:square;stroke-linejoin:bevel;stroke-miterlimit:14.3349;">
	<!ENTITY st20 "fill:none;stroke:#E3D5E7;stroke-width:3;stroke-linejoin:round;stroke-miterlimit:14.3349;">
]>
<svg version="1.1" id="Layer_1" xmlns="http://www.w3.org/2000/svg" xmlns:xlink="http://www.w3.org/1999/xlink" x="0px" y="0px"
	 width="194px" height="193px" viewBox="0 0 194 193" style="enable-background:new 0 0 194 193;" xml:space="preserve">
<metadata><?xpacket begin="﻿" id="W5M0MpCehiHzreSzNTczkc9d"?>
<x:xmpmeta xmlns:x="adobe:ns:meta/" x:xmptk="Adobe XMP Core 5.3-c011 66.145661, 2012/02/06-14:56:27        ">
   <rdf:RDF xmlns:rdf="http://www.w3.org/1999/02/22-rdf-syntax-ns#">
      <rdf:Description rdf:about=""
            xmlns:dc="http://purl.org/dc/elements/1.1/">
         <dc:format>image/svg+xml</dc:format>
         <dc:creator>
            <rdf:Seq>
               <rdf:li>James R Mann</rdf:li>
            </rdf:Seq>
         </dc:creator>
         <dc:title>
            <rdf:Alt>
               <rdf:li xml:lang="x-default">Penn Campus Map</rdf:li>
            </rdf:Alt>
         </dc:title>
         <dc:subject>
            <rdf:Bag>
               <rdf:li>Penn</rdf:li>
               <rdf:li>Penn Campus Map</rdf:li>
               <rdf:li>Penn Campus</rdf:li>
               <rdf:li>Penn Map</rdf:li>
               <rdf:li>Campus Map</rdf:li>
               <rdf:li>Campus</rdf:li>
               <rdf:li>Map</rdf:li>
               <rdf:li>University of Pennsylvania Campus Map</rdf:li>
               <rdf:li>University of Pennsylvania Campus</rdf:li>
               <rdf:li>University of Pennsylvania Map</rdf:li>
            </rdf:Bag>
         </dc:subject>
      </rdf:Description>
      <rdf:Description rdf:about=""
            xmlns:xmp="http://ns.adobe.com/xap/1.0/"
            xmlns:xmpGImg="http://ns.adobe.com/xap/1.0/g/img/">
         <xmp:CreateDate>2016-02-05T14:14:03-05:00</xmp:CreateDate>
         <xmp:CreatorTool>Adobe Illustrator CS6 (Macintosh)</xmp:CreatorTool>
         <xmp:ModifyDate>2016-02-05T14:14:03-05:00</xmp:ModifyDate>
         <xmp:MetadataDate>2016-02-05T14:14:03-05:00</xmp:MetadataDate>
         <xmp:Thumbnails>
            <rdf:Alt>
               <rdf:li rdf:parseType="Resource">
                  <xmpGImg:width>256</xmpGImg:width>
                  <xmpGImg:height>256</xmpGImg:height>
                  <xmpGImg:format>JPEG</xmpGImg:format>
                  <xmpGImg:image>/9j/4AAQSkZJRgABAgEASABIAAD/7QAsUGhvdG9zaG9wIDMuMAA4QklNA+0AAAAAABAASAAAAAEA&#xA;AQBIAAAAAQAB/+4ADkFkb2JlAGTAAAAAAf/bAIQABgQEBAUEBgUFBgkGBQYJCwgGBggLDAoKCwoK&#xA;DBAMDAwMDAwQDA4PEA8ODBMTFBQTExwbGxscHx8fHx8fHx8fHwEHBwcNDA0YEBAYGhURFRofHx8f&#xA;Hx8fHx8fHx8fHx8fHx8fHx8fHx8fHx8fHx8fHx8fHx8fHx8fHx8fHx8fHx8f/8AAEQgBAAEAAwER&#xA;AAIRAQMRAf/EAaIAAAAHAQEBAQEAAAAAAAAAAAQFAwIGAQAHCAkKCwEAAgIDAQEBAQEAAAAAAAAA&#xA;AQACAwQFBgcICQoLEAACAQMDAgQCBgcDBAIGAnMBAgMRBAAFIRIxQVEGE2EicYEUMpGhBxWxQiPB&#xA;UtHhMxZi8CRygvElQzRTkqKyY3PCNUQnk6OzNhdUZHTD0uIIJoMJChgZhJRFRqS0VtNVKBry4/PE&#xA;1OT0ZXWFlaW1xdXl9WZ2hpamtsbW5vY3R1dnd4eXp7fH1+f3OEhYaHiImKi4yNjo+Ck5SVlpeYmZ&#xA;qbnJ2en5KjpKWmp6ipqqusra6voRAAICAQIDBQUEBQYECAMDbQEAAhEDBCESMUEFURNhIgZxgZEy&#xA;obHwFMHR4SNCFVJicvEzJDRDghaSUyWiY7LCB3PSNeJEgxdUkwgJChgZJjZFGidkdFU38qOzwygp&#xA;0+PzhJSktMTU5PRldYWVpbXF1eX1RlZmdoaWprbG1ub2R1dnd4eXp7fH1+f3OEhYaHiImKi4yNjo&#xA;+DlJWWl5iZmpucnZ6fkqOkpaanqKmqq6ytrq+v/aAAwDAQACEQMRAD8A6rih2KuxV2KuxV2KuxV2&#xA;KuxV2KuxV2KuxV2KuxV2KuxV2KuxV2KuxV2KuxV2KuxV2KuxV2KuxV2KuxV2KuxVsKx6An5Yq36c&#xA;n8p+44rYd6cn8p+44rYd6cn8p+44rYd6cn8p+44rYd6cn8p+44rYd6cn8p+44rYd6cn8p+44rYd6&#xA;cn8p+44rYd6cn8p+44rYd6cn8p+44rYd6cn8p+44rYd6cn8p+44rYW4q7FbDsVsOxWw7FbDsVsOx&#xA;Ww7FbDsVsOxWw7FbDsVsOxWw7FbDsVsOxWw7FbdirsVRulgGYgio9/kclHmirkEVq99baZpd1qEs&#xA;XOK0iaV0QDkQgqQK0GXwhxEDvbJiMRdMAb87dGX1JG0K+FnFefo2S+raeit1yCcCfW5U5njz48a9&#xA;8s8Hfntyto8aHcjv+VtaD9eksPqo+vwhjLafW7D1kCLyYtH6/IcV3NR0yf5YXXFG2P5iNXwn5NWX&#xA;5uaBfvIljbLdPCnqyrBd2EhSPb42Czmi79TiNMDylFTqIjnE/JuD82tBuLKa/t7QTWNv/vRdx3dg&#xA;0Uf+vIJyq/ScRpgRfFFTqIXXCfktf83/AC6llHfPbotlMxWK6N5p4idlFWCuZ+JIA3ocfy4q+KKf&#xA;zEbrhPyXWP5t6Df3AtrG1W7uGT1Fhgu7CRyn84VZyePviNMDylFB1ERzifkmtr51jlvrW1m0i4th&#xA;dyiFJXa3ZQzAkVCSM3bwwy0hAJsbJhqISNAMo9OP+UfcMxXK4B3O9OP+UfcMV4B3O9OP+UfcMV4B&#xA;3O4J/KPuxTwjueG6t+aOuaT5uvNIhhtvNCi5kVLHShP9ftk5V4zjhJAeHQ/Gp8cocfH9I9z1nyh5&#xA;g0zzJ5cs9YsEdba4VlCToElV4XaKRHWpoyuhHXLhybYQFDZOfTj/AJR9wwsuAdzvTj/lH3DFeAdz&#xA;vTj/AJR9wxXgHc704/5R9wxXgHc704/5R9wxXgHc704/5R9wxXgHc704/wCUfcMV4B3O9OP+UfcM&#xA;V4B3O9OP+UfcMV4B3O9OP+UfcMV4B3O9OP8AlH3DFeAdzvTj/lH3DFeAdzvTj/lH3DFeAdzvTj/l&#xA;H3DFeAdyB1ZVEKEAA8uw9shNqyRAIpKsrV2Ko3S/7/8Az8Dko80fxD8dEP5+P/Om6v8A8wz/AKsy&#xA;sH1x966r6C8TvvKfmRdUup9Ksp9N1WfUfrH6Vsrz09PltzKGLXVrJM7tJw5BlWKhY1rmSccr2FG+&#xA;/Z14yRrfcV8UjuPInnaTXI7t9Pdgl7qEsghksorQR3MRjikhiRo5OTbeo0g5dOu+VnFO7rqe5mMs&#xA;a593eqW35deZRDp0VxpfqQxeW5dOu4luYYSbh52k9ISL6tCQahuJWvXCMMttv4aU5Y77/wASta+S&#xA;POpsZGuIGuY7TUNOvYLW8Fml7dRWYYSQTTQPJHIByX0jK/b9kYRinXxHcg5I38CjovJ3mSfzJb6y&#xA;9h9WtZteGovYtJCzQQpbGL1X4MyF5H+IhGbD4cuK6/itj4keGr6N+UfJXmDTbvynJc2IhXTZtYe/&#xA;IkiPAXZ/0c/Cx5ch/LWnemHHikDHbla5MgN+dPQ70kXukkbH69H/AMQfL8v0S9zjhl/qSfzH7zml&#xA;tlxnvd6kn8x+842vGe9fAJpZVQMd+pqdhiGzEJTlVpxsFIHYU/DLXc9Hzj5p1z8x9P8ANWoG1a7s&#xA;bJ9SMNrYWWnQvHcqZIeDG5KO3KeOSVi9dmXj8qHHx/SPc+huZisFdKAhFI/DLejKczHHY7lOK/ik&#xA;HCZeNe46f2YiTRDVxltIKV3bSRj1I3LR/PpgIas+GUd4n0oX1JP5j95yNuJxnvd6kn8x+842vGe9&#xA;Faa7GdgSSOJ6n3GSi5eikTM+5JvPU12s+kwQXU1qk8swlNvIY2YLEWAJHvmdpIg3YtyNZMxAopF9&#xA;Wvv+rtqH/STJmZwR7h8nXfmJ95d9Wvv+rtqH/STJjwR7h8l/MT7y76tff9XbUP8ApJkx4I9w+S/m&#xA;J95d9Wvv+rtqH/STJjwR7h8l/MT7y76tff8AV21D/pJkx4I9w+S/mJ95d9Wvv+rtqH/STJjwR7h8&#xA;l/MT7yyPyFPdS6derc3EtyYb2WKOSZy78AiEDkfnmDqogSFDo7PSSMoWWS5jOSgNX/uU/wBbITac&#xA;vMJVlaHYqjdL/v8A/PwOSjzR/EPx0Q/n7/lDdW/5h3/VmVg+uPvXV/QWP5s3TPItD82+dtQEE1pd&#xA;31/e/pl7W5szYxiwWxSRlZjcrbpxZVp/u6vtmHDJM8rO/dtTlyxxHy791a1/NnUdN8vRXWoxw391&#xA;LNqHxzXEdoeFrKwjjjjijlkdiBQH0wv8zYRqCI2d+aDgBO3kyLT/AMwb/WJmXQ9G+urb2tjd3qvc&#xA;pBKv1+P1USJWQo5RN25OntlkcxlyHd9rWcQHM9/2Kenfmppl7r8OmLHAILq7msbd1ule6EkFaPLa&#xA;hA0cchQhG5HtUCuMdQDKknAQLZzl7Qg77/e3Sv8AmNj/AOIPkM30S9yQzCKGSVuKLU980oDOGOUj&#xA;QRKaZKftsFHtuclwuVHQy6lVMlvZoVj+OU/574dg2mcMIobyQOsqs/lPVllsm1RZLW5D6cjcGuQY&#xA;2BhVh9kyfZB7Yjk2aaRMLPm+ctB1DWtP121gGr3PkW2eYKmiao15eh0ZgOKG7gSEVGwKyZUzjyfT&#xA;0n/HNH+ov8MtPJjm/uvgleVuoRthcb+g+6t9mv6snEudpM2/AeSHuofRmKj7PVfkciRTj58fBKlL&#xA;A0ovTP8Aehv9Q/rGSjzczQ/WfckP5g3Fvb3eiS3EqQxCWeskjBVFYSBuaDNjoxzbtd9ISSPWtHkd&#xA;Y47+3eRyFRFlQkk7AAA9czeEuspj7/md5cQ+YUKz+t5br9eg4pzdQeJeEc6MtdtyMx/Hjv8A0W3w&#xA;ZbeaaW3m3R5Vu5Jpks4LJYHmnuJ7dVAuIxInILKzx7H/AHYq1/ZqN8mMgYnGULffmB5Wsr7TbaW8&#xA;jNvqqTSW+pLLD9TVbcAtzmLgCpNBSu+A5ogjzSMUiD5Jpd+YNBskge81K1tkugDatNPHGJQdx6ZZ&#xA;hyrXtkjMDmWIgTyCEXzdow1TV9PuJPqh0RLd726uCkdvS6UtHxct7UPIDfB4gsjuT4ZoHvT3yD5q&#xA;8rrp9+7axYqkt9LJExuYgGQogDKeW4265jaiBkQYixXR2WlkIwomizGw1nSNQLrYX1veGOhkEEqS&#xA;lQeleBNK0zFlCUeYpyozB5FT1f8AuU/1sqm15eYSrK0OxVG6X/f/AOfgclHmj+Ifjo7zdYzX/lvU&#xA;LKCgmuImjj5Ggq2wqd8yMcxGQJ6FdX/dliH1bzR/1b7b/pLb/qjmb+bx+fy/a6emM6FaweV9Ovra&#xA;K408W8F28l9Jc6nEDDPcty9OQiFAlSfhVt8hDUYoigT8myVyPJJY/wArLWW5n0+0mC6hbwXEN9DD&#xA;qULTi31FjKySobRiisWPAgA07nKuPD3y/tZ+LLnX4CZ2X5XarY8PqTT2qm3trW7EOoLGbiOyHGH1&#xA;HS0Eisq/CTEyVHXJDLiHIyYnLfOlSx8tXmm6ncm0mAWxaS/m0KLUlEUTXPJy7xJbrLxc8iqu5SvQ&#xA;ZOGbHexkgyJG4+LIrjUxFozamI+QWD1xFWnVeXHlQ/qzNremqkxTyx5nuL6xa5t7aCC3uFmkkS4a&#xA;VqKGFApiT+bxzEyaiBiQL3c0aKTNUhNvbMEI5gElqd819UHMjj8PGQOaVvPM/wBpyfau2V26uWWR&#xA;5lZga0W9il/ol1YySSwpdRSwtNA5jlQSKVLRuN1YVqD2OWR5O10n9281tfK/5TeXNSjikFi2rNMt&#xA;ukuoTLc3ZmYckWs7Oysw3FKfjlTOBsB6nJ/xzR/qL/DLTyRm/uvgleVuobVirBh1BqPoxSDRtHak&#xA;AyRSDvt9++Tk5+tFgSQGQdei9M/3ob/UP6xko83M0P1n3JjJFFIAJEVwOgYA/ry23aUxrz3b26aJ&#xA;EyRIrC9s6EKAf96U8MydKTx/AuNqx+7LwTzJ+Wnme8tPMt5YWwTVrrUrhrRDJEPrVhdRxo6FuVFo&#xA;yB1DkUK++GeCRBI539jhwzRFA8q+1FP5H81JrU+pix9WGDUNHvUthLDynSzsmgmCcnChkdtuZUHs&#xA;cPhSu66j7mPiRqvI/ejNa8q67qerabf2+gRadEltrC3FvHLbkiW8hKQvLx4L6krfa48gO7ZKWMkg&#xA;1XNEZgAi75Jfpvkrzbp2l8Z9LOpS3ugLpBtzNb/6LMrPs5kk4mI8g1YyxqPs5GOKQHK/TTI5Ik86&#xA;3tqX8u/MiDU4pree6rHoi2t7aXMMM7S6fAySzRersxjelFk4cv5gcHgy3/zfsXxY7fH7Wafl9o2s&#xA;afocsOuRR/W3uppI29KCOVomI4tcC35RGZtyxDNXuScyMIkBu05ZAnZmvk5EXzNqIVQo+pW2wFP9&#xA;2z5Xq/pHvLl6DqyXV/7lP9bNbNy8vMJVlaHYqjdL/v8A/PwOSjzR/EPx0R+of7yt8x+vJy5I1f8A&#xA;dlKcrdQ8K/MXy7dXn5j3flqGMm082wwajKVGwk062uUI7fEziI/di5mKVQv+ag/Lt/5ju/K8nnBW&#xA;NtD5h122ttVu5LmSyRLGztjCnq3kSvJbxmYcWkVfh8RXEBt8GzXQD7VXW9c8x2mi6dNL5iiu7INq&#xA;LW1vHqF/YvPbqwELQ6rNBapdTQ/Eqc+SybNxcVoaZjDAeZRukObj8y5+Fzf2MmraHp800NzNyuH5&#xA;QMZRIsg9MlW2PGMBTXiFqRmZo4xJNtGoMREcPJ6JJp0EmmHTmLegYhATUcuIXj1p1+jNle9uCyjy&#xA;NdXlxpE5urh7mSK7niWWUgtxRqKCQBmu1MQJbdzudNMyhZT+YExOAKniaD6Mxi25PpPuSj6rcf77&#xA;b7sroun8CfcXfVbj/fbfdjRXwJ9xRMk1xZaPczx20l1PBHJJHaR8RJKyqSI05lVqxFBU5McnZaaJ&#xA;GOi8Jb8qL3zHf6jq8k506PUb55ZbK7hglubcSSxy3AWWCaZOfK2RUJoVXkCMqTDkHvrIz6eqqKsU&#xA;Wg+7Lei5Ik4qHcgPqlz/AL7OQout/Lz7nfVLn/fZxor+Xn3Iy5hleziUKS68ajvsKZMjZzc2OUsQ&#xA;Fb7IP6pc/wC+zkKLhfl59yJ0+CaOZi6lRxIqfmMlEOVpMUoysjoj8m7Bjnn7/jhR/wDMbZf9RKZk&#xA;6X6/gXH1f92Xl/5g+ZNa0bVPLEWm83S/v/Ru7WJYS80fEHgrTFVUnx5L88yM0zExrqXWYoAg33JN&#xA;pf5kaxHq2uW97bSS3Dapbabo2lzGGIxNOjMVlmgEy8QE5Fqv7ZCOc2b76DOWEUK7t02j/Mr/AHI2&#xA;WlzacE1CXU30q9jWfkkLrH6iyo3pj1EdTtUKcn4+9VvdMPB2u+lpYfzni/RmmXZ06OCbUjdcFurv&#xA;0YB9VkMfAXBhZfUkPQMFUd2GQ/M7A1zZ/l9zvyRWofm7ptletDJDAsNsbRb0PeRC5Bu0V628Chxc&#xA;LEJF5srj/JrTJHUgH9rEYCQ9AzIaEZ5Q/wCUn1H/AJgrb/k7PmNq/pHvLsNB1ZJq/wDcp/rZrZuX&#xA;l5hKsrQ7FUbpf9//AJ+ByUeaP4h+OiP1D/eVvmP15OXJGr/uylOVuoRVrZPKQzjjH+JyQi5WDTGW&#xA;5+lUur0AelBso2LD9QwmTbn1NemHJA5BwGM+a7m2ttV0iW4lSGMC5BeRgq1Kp3NM2OgH1fBVxnhE&#xA;JnMiiELzMtRx40ry5dKU75nITr8vJY5dFuZInDxvfXJR1IKkF+oIzA1f1/B3Gj+hlGYrkuxV2Kub&#xA;7J+WKDyfOfmLSFPn2/eHXdL8kXD3TM8sF88moXYc1VpLQyxwD1djQqW+eUOPj+ke57p5Ph8xQeXL&#xA;KHzFcQ3erxqyz3NsOMcih29JuPFOLGLjyAFOVaZcOTfDkE4wsnYq7FXYq7FXYqk3m3S73U9H+r2Q&#xA;Q3CTwTosjFFb0ZVkK8gGpUL4ZdgmIystWfGZxoPOvMPlee98waKNbh+rTaaz6jYta3AkVnjZEKyh&#xA;4VNPj7HM0cOTcX6S6ycJYhR/iQ3/ACrHS77Ub+SCSdb6+uotUFx6iK1vcW3wI0FY2HR9w4YHNdrt&#xA;QMEhtfFvzqq+BYwmTt3IiT8nUeOBhcTpqEN8dTOqCaM3D3LLwLPygMXHiAOIjAFNswf5U/ob3f1f&#xA;8dZ3Ly5UoJ+SUcejQaPDe3UdlCJ1aMzwyrItw5dvUjmt5IuSljxcIHA/awfyntXD/sv+Op4pXeys&#xA;PysbTZYRpUs9mkxtonsbe79GKc2kfGIyyek0y/u46N6bry/arl+DtESmI8JiD3Hu+H6VAlI1tbJf&#xA;0H5w/wCWC0/6S2/6oZuPzOPz+SfyU/JM/Kuia1aareX2oxQwrNBDDGkMpl3jeRiSSkdP7zMfUZoy&#xA;AAcrTYJQu051f+5T/WzCm25eYSrK0OxVG6X/AH/+fgclHmj+Ifjomc8SyxFGPFTSp+WWENmWAlGi&#xA;hf8Acfb7j43H+yP9MjsHE/c4/M/NQuL6SUFV+BPDufngMmjNqpT2GwQ2RcV2KsVufMkmoWUyQaRP&#xA;MjrLFFKXtwKiqVo0gYbjwzYQ0cgQbH2pQstnct5aeyCVuTZGER1H2zFxpWtOvvmwvdj1ZNpnnJFm&#xA;sbCXSbi1Fw6wLKWtygcqeojkZv2fDMDJpiATbtseriSAAyp3CozClQCfuzEcmUqBKA/Skn8g+85D&#xA;jdf+ePc79KSfyD7zjxr+ePci7eYzQFyKHcUGSBtzMWTjhb5d1m08r3fnPXYH1+00rUBrkgdbq3Wa&#xA;cq8kEhaCZP2lkg4oD9kFlPWppYY/pHufUKSelZJJSvFF2+gZdezYZ8ML8lD9Kr/vs/f/AGZHjcX8&#xA;8O536VX/AH2fv/sx41/PDuRAugbYzha06rX3pkr2cgZ7hx0h/wBKr/vs/f8A2ZHjcf8APDuVba9E&#xA;8hQJxoK1rXCJW3YdT4hqkTknJdirzRb/AFXWL+PU71oFjhS4toIoUdTQzLu7M71/uewGbbHjEBQ6&#xA;um1GYzNHojYLu4s7pJ4Qh5UicPXo7ruKEb7Zqe19OZR8S/p/SQ1Y5UWX5zzkuxVDXiXBa2lgRZHg&#xA;l9QozcARwZetG/m8MnCfDIS7kxlwkFV/SOq/8sUX/I8/9U8zPz5/m/b+xyfzR7vtVLPUbma8NtPb&#xA;rCfTMissnOoDBafZTxy/T6rxJVVNmLNxmqdq/wDcp/rZkTTl5hKsrQ7FUbpf9/8A5+ByUeaP4h+O&#xA;iP1D/eVvmP15OXJGr/uylOVuodirsVdirDtB/wCOYn/GSb/k8+b5SmGKEHff726V/wAxsf8AxB8h&#xA;m+iXuSGW5pFdirsVTSw/3k+k5ZHk7XSf3b57uPPV7pXnbWNPe40O7il1WT0ReTSfWoFLhDGAsXYr&#xA;ULXYnrlTLH9I9z6Ek/45o/1F/hlp5Lm/uvgleVuodiqM0+dRyhk+y/SvvtTJxLm6TKN4nkVs9hMj&#xA;EoOadqdfuwGLDLpJRO24X6ajrO3JSPhPUU7jDFs0cSJmx0THJuydirzLRf8AeAf8ZZ/+Tz5uXQZP&#xA;qKLl6J/xkj/4mMwO0v7iXw+8LDmzPOUcp2KuxV2KqNt/x2x/zDN/ycXMzQ/Wfc5Gm+r4K2r/ANyn&#xA;+tmym35eYSrK0OxVG6X/AH/+fgclHmj+Ifjoj9Q/3lb5j9eTlyRq/wC7KU5W6h2KuxV2KsO0H/jm&#xA;J/xkm/5PPm+UphihB33+9ulf8xsf/EHyGb6Je5IZbmkV2KuxVE3GqWek+X7zVL1ilnYQy3Ny6gsR&#xA;HEpdyFG52GWR5O10n92+c9X812/mrVHjj1wxaNe3iSwPBoc31hFWYSR0uabMCBV8qZwFAB9Lyf8A&#xA;HNH+ov8ADLTyRm/uvgleVuodiqC1LWdN030vrs3pGaoiAV3J40rsgbpXLceKU/pCqUXn/RYxT62W&#xA;Hg0Mx/40y4abL3fc5MNTOPmiYPzC8uMxEtyUFOohn6/8BhGmydzlYtZZ9Wyv/j7yn/y2n/kRP/1T&#xA;w/lcnc3/AJnH3u/x95T/AOW0/wDIif8A6p4/lcncv5nH3sSuH8tSeY4ZNBQLG1tObtlSVAZGliK1&#xA;9QLv9rpmdiExE8Tr9UYGuFMNMfy4gke/KC7WZipblyAFOPTOW1omcsvqq/NrhVMms7+zvEZ7WUSq&#xA;poxFev05hnZsBS+783+W7O/vrC7vkt7nTbVb6+EgdEjt3JVXMhHDcilA1ckIEsuErNE85+Xdbu3s&#xA;9PuXN5HEtwba4gntZWgc0WZEuI4meMnbmoK++MoEc1MSG/LfnPyz5la+XQ75bxtNl+r3oCSJwk32&#xA;/eKnIfCaFajGUDHmpiRzTS2/47Y/5hm/5OLmTofrPub9N9XwVtX/ALlP9bNlNvy8wlWVodiqN0v+&#xA;/wD8/A5KPNH8Q/HRH6h/vK3zH68nLkjV/wB2Upyt1DsVdirsVYdoP/HMT/jJN/yefN8pTDFCDvv9&#xA;7dK/5jY/+IPkM30S9yQy3NIrsVdiqpqLX6+VtSOnWsd9fi2n+qWU1PTml9M8In5FRxdqA1I2ywcn&#xA;a6T+7fO9l5R/MaXXLe+vvKr6W4mR5RoVzp+mxghhUvxaeR1HfepypnHk+mJP+OaP9Rf4ZaeSM391&#xA;8Eryt1DsVY75j/47Wkf6tz/xFM2Oh5S+Ct5modirsVdirsVdiqa+Wut7/wAZE/4gM5XtP+/l8Puc&#xA;jHyeX/mb5P8AMmt+ZfNJ06xmlSTSdOaCqMsNy1reetJbrIaIW4LXjXrTKsUwAL7y5UJAAMk8w+bL&#xA;65g1LVNF8pXkt7ZaVILXVbizmgvUupzxS0gheH1pQGPORkbgKdTkIw6E9WIj3lj/AOWHlLzR5L82&#xA;aVa3GliPTdW0gW99cWkktxGL21YzCa5YwQiFnWRkVSW32DHJ5ZiQO/IpnIEPYbb/AI7Y/wCYZv8A&#xA;k4uS0P1n3M9N9XwVtX/uU/1s2U2/LzCVZWh2Ko3S/wC//wA/A5KPNH8Q/HRH6h/vK3zH68nLkjV/&#xA;3ZSnK3UOxV2KuxVh2g/8cxP+Mk3/ACefN8pTDFCDvv8Ae3Sv+Y2P/iD5DN9EvckMtzSK7FXYqmlh&#xA;/vJ9JyyPJ2uk/u3gHmP83fM1j521LTY2tUW2uTa2ejNE5uZylxaqrc69biK4kaPiKAL3yplj+ke5&#xA;7/J/xzR/qL/DLTyXN/dfBK8rdQ7FWO+Y/wDjtaR/q3P/ABFM2Oh5S+Ct5modirsVdirsVdiqa+Wu&#xA;t7/xkT/iAzle0/7+Xw+5yMfJO8wGx2KuxVRtv+O2P+YZv+Ti5maH6z7nI031fBW1f+5T/WzZTb8v&#xA;MJVlaHYqjdL/AL//AD8Dko80fxD8dEfqH+8rfMfrycuSNX/dlKcrdQ7FXYq7FWHaD/xzE/4yTf8A&#xA;J583ylMMUIO+/wB7dK/5jY/+IPkM30S9yQy3NIrsVdiqaWH+8n0nLI8na6T+7eFXnmDzHH+Ytxba&#xA;FXXCl5IlxHqNnFbJaRGTjIttfNJFI4QkhV4NlTLH9I9z3WT/AI5o/wBRf4ZaeS5v7r4JXlbqFC5e&#xA;cNBHCVDzScOTgsAOLN0BX+XKNRlMACO9lEWUPe+Xbu8ura5luYw9qJBGFRgD6gANasf5cqxdpZcd&#xA;0I7+/wDW2eE7/D15/wAtMf8AyLb/AJqy3+WM3dH5H9aPCd/h68/5aY/+Rbf81Y/yxm7o/I/rXwnf&#xA;4evP+WmP/kW3/NWP8sZu6PyP618J3+Hrz/lpj/5Ft/zVj/LGbuj8j+tfCd/h68/5aY/+Rbf81Y/y&#xA;xm7o/I/rXwnf4evP+WmP/kW3/NWP8sZu6PyP618JH6TpsliJucgkaZg3wjiBQU7k5gZs0skzKXM9&#xA;zZGNI/KmTsVdiqjbf8dsf8wzf8nFzM0P1n3ORpvq+Ctq/wDcp/rZspt+XmEqytDsVRul/wB//n4H&#xA;JR5o/iH46I/UP95W+Y/Xk5ckav8AuylOVuodirsVdirDtB/45if8ZJv+Tz5vlKYYoQd9/vbpX/Mb&#xA;H/xB8hm+iXuSGW5pFdirsVTOyZUsmdyFVeRZiaAAdSTlkeTtdJ/dvlzzFY2V75z1XUbXW9Jlsr2/&#xA;KSaublzeRB7m0kjjjgUM8noNbcImjqlHqSKHKmUPpD6kk/45o/1F/hlp5Lm/uvgleVuoUbiGWQxN&#xA;E4jkifmpZeQ+yVpSq/zZTnxcYq6TE0u9TVf+WiL/AJEn/mvMb8kf532ftZ+KUTptxNPbFpiDIsjo&#xA;SooDwYrWlT4ZiEUSO4tsTYRWBk7FXYqoXFzJHNFDFA08soZgqlVoEpXdyo/ayUYGRoCymMSTQa9X&#xA;Uv8Aq3S/8jIf+a8t/LZf5v2j9bPwZ9zooNckjDuIIWNf3bBmI32qVYjLI6KZG9BmNNIhf9U1n+e2&#xA;/wCBk/rkvyM+8J/LS73fVNZ/ntv+Bk/rj+Rn3hfy0u931TWf57b/AIGT+uP5GfeF/LS719lY3qXx&#xA;ubl4z+6MarGGHVg1TyJ8Mv0+mOOVk9G3DhMTZXav/cp/rZlTZZeYSrK0OxVGaYQJ9zT/AGjko80f&#xA;xBM5liljKM4APcEdssLPLETjRKG/R9t/v0/eMjwhxvycO936Ptv9+n7xjwhfycO936Ptv9+n7xjw&#xA;hfycO936Ptv9+n7xjwhfycO9j8f5f2EQKw6xfRRlmYRq1vQcmLGlYSepzNGsl3D8fFfycO9d/gS2&#xA;/wCr5f8A/BW3/VDH85LuH4+K/k4d66LyJYJdW9xLqt5cfVpBLHHI0HDkAQK8YlPfxyM9UZAihv8A&#xA;jvX8nDvTz9H23+/T94zE4Qv5OHe79H23+/T94x4Qv5OHe79H23+/T94x4Qv5OHel/mzVovL/AJP1&#xA;jU0iF59Rs57gWxowkKRk8WH8p/a9sPIORjgIRoF84pcafptxJqOn6L5eeLRvqF1q7R24lFxe6jKD&#xA;6NjI7MYfSjoVRdgQdsqQOT6jRoJLRI2kUVRQdxXYDLeiTEShwk9FH6lZ/wC/vxXBwhx/ycO931Kz&#xA;/wB/fiuPCF/Jw73fUrP/AH9+K48IX8nDvQ40ayUtwvZYwzFiqS0FWNTt88xpaPGTe7IaWPeuXSbQ&#xA;He+nPt62D8lj8/myGnj3t/ouy/5bJv8AkecP5LH5/NPgQd+i7L/lsm/5HnH8lj8/mvgQVLawsYLg&#xA;Ti4eSRVKr6knIANStK/6uTxaeEDYZwxwibCN9eH/AH4v3jMi23iDvXh/34v3jG14g714f9+L94xt&#xA;eIO9eH/fi/eMbXiDvXh/34v3jG14g714f9+L94xteIILVXjaFeLhiG6Ag9sjNqyUSErytDsVbCs3&#xA;QE/LFBIHNv05P5T9xxR4ke8O9OT+U/ccV8SPeHenJ/KfuOK+JHvDvTk/lP3HFfEj3h3pyfyn7jiv&#xA;iR7w705P5T9xxXxI94d6cn8p+44r4ke8O9OT+U/ccV8SPeHCKUmgRq/I4qJx723hlQVdGUeJBGGm&#xA;dLMCFskcckbRyKHjcFXRgCCCKEEHqDiqTW3kryhawQ29to9pDBb3AvYY0iRVW4UFVloB9pQxoe2C&#xA;wx8SPeE7w2kEHk7FLao7miqWPgBXFK4wTL9qNh8wcNIJA5tenJ/KfuOBj4ke8O9OT+U/ccV8SPeH&#xA;enJ/KfuOK+JHvDvTk/lP3HFfEj3h3pyfyn7jiviR7w705P5T9xxXxI94d6cn8p+44r4ke8O9OT+U&#xA;/ccV8SPeHenJ/KfuOK+JHvDvTk/lP3HFfEj3h3pyfyn7jiviR7w4o4FSpA8aYpEgeRW4pdiqM0z/&#xA;AHoX5/8AGrZKPNj/ABR/HQpxlrkoS+1fTrEhbmdUkbdYxVnI9kWrZGUwObkYdNkyfSNvs+aE/wAU&#xA;aV4T/wDIiX/mnIeNFv8A5Oy/0f8ATD9bv8UaV4T/APIiX/mnHxor/J2X+j/ph+t3+KNK8J/+REv/&#xA;ADTj40V/k7L/AEf9MP1u/wAUaV4T/wDIiX/mnHxor/J2X+j/AKYfrd/ijSvCf/kRL/zTj40V/k7L&#xA;/R/0w/W7/FGleE//ACIl/wCacfGiv8nZf6P+mH62j5q0hRVjMq92aGQAfMlcfGiv8nZfL/TBNgUk&#xA;SoIdG6EbgjLXBIrYpLqFusM9E+ww5AeHtlUhTTIUhGyjIXA1cjYDWVuG4dclE7t2GREgrwRGWZIx&#xA;+0dz7d8yAHaAJ9FFHEgRBRRlwDcAls3mTSopnhLSO0Z4uY43da0BpyUEd8rOWIc2OgyyAO2/eQFv&#xA;+KNK8J/+REv/ADTg8aLL+Tsv9H/TD9bv8UaV4T/8iJf+acfGiv8AJ2X+j/ph+t3+KNK8J/8AkRL/&#xA;AM04+NFf5Oy/0f8ATD9bv8UaV4T/APIiX/mnHxor/J2X+j/ph+tVg8xaLMpb63HEVPEpMwieo/yX&#xA;4nCMsT1a56HNE/ST7t/uVP05ov8A1cLb/kdH/XD4ke8Mfymb+ZL5F36c0X/q4W3/ACOj/rj4ke8L&#xA;+UzfzJfIu/Tmi/8AVwtv+R0f9cfEj3hfymb+ZL5FWt9QsLliltcxTuoqVjdXIHjRScIkDyLXkwTg&#xA;LlEj3hXyTU7FUJqn+8p+Y/WMhPk1ZOiTZWxdiqM0z/ehfn/xq2SjzY/xR/HQovWr97HTpZ4wDNsk&#xA;IPTm5Cr91a5LJLhFuy0uEZMgieXX3Bi0UPAs7sZJpN5Zm3Zj4k/wzEd1KV7DYDkFTFg7FXYq7FXY&#xA;q7FWmVWUqwDKeoO4xSDSyxtraDVrCSOJUJn4kqADRkYfrwwAEgyzZJSxTBP8P6QyHV/79P8AV/ic&#xA;yZvMTS5sx8jrtWNwWsrcRw65KI3bcMbkEXp/+9kf0/qOZMebto80D5mjgn1mKOSMOI7fkeQBHxuQ&#xA;P+InKs+8vg9B2fIxwkg1cv0ftQkUUUS8Y0CL4KKDK6b5SJNlfixdirsVdiq0oh3KivyxTZd6afyj&#xA;7sVsu9NP5R92K2Xemn8o+7FbLSJLFP69vM9vJx4Ex8d1JrvyVvDEWOSSQY8MgJDztXhv9US8tA17&#xA;LIkk8aOjCOhVmoeig5OM5WN2qeHGYS9IFRPf+tl2ZbokJqn+8p+Y/XkJ8mrJ0SbK2LsVRmmf70L8&#xA;/wDjVslHmx/ij+OhWebSRZW1BX/So9vobBn5fF3fZn1y/qlKMx3OdirsVdirsVdirsVdiqN8sWul&#xA;TCR2jU6jbzyMxaocAsSjUPbidjl2GMT73H7QyZY0Af3coj3ct0x1gH1Yz2K0+4/25ZN0c0vIrlZF&#xA;tU4CQoreJyvwy4Z0h72wKZOMacjFhEPeitOB+uR09/1HLI83Ijza82Wum/o2e7njU3Xp+lbvvy5E&#xA;ngq067muDMBVnm7fs3Jk8QRifTdn9KU5juc7FXYq7FXYq7FXYq7FXYq7FVq/72WX/MTF/wASwjmP&#xA;ek/RL+qWaZmvPITVP95T8x+vIT5NWTok2VsXYqjNM/3oX5/8atko82P8Ufx0K3zX/vHa/wDMSn/E&#xA;WwZ+Xxd12b9cv6p/Qk+Y7nuxV2KuxV2KuxV2KuxVV0W5W314CUFY7mL0o3/ZMnLkFJ8aDbJ4jUmG&#xA;rx8WDbnE38GTXlqLiLj0cbqcyiLdDIWk0lvPGaOhHvTb78qIaiFnFvA4FXJDM5oiMfkMNLSa2FiY&#xA;AXk/vDtTwGWRjTZGNJR5ruVaays0HORZPXkFNlTiyAk/7I0ynOeQdx2bjoSmeVV+lAZS5TsVdirs&#xA;VdirsVdirsVdirsVVdGtY7vWwZI2aK0j9QNUhRKWUp0IrsG65PFG5e5hqshhh2O8jXwo3+hluZbo&#xA;kJqn+8p+Y/XkJ8mrJ0SbK2LsVRmmf70L8/8AjVslHmx/ij+OhW+a6/UbdgCQtwhbiC1BxbegwZ+T&#xA;uuzfrP8AVP6Eh+tReD/8i3/pmNbs/DPl8w761F4P/wAi3/pja+GfL5h31qLwf/kW/wDTG18M+XzD&#xA;jdwgVIcAdT6b/wBMbXwz5fMKqsGUMpqpFQfY4WBFN4odirsVUbiAzIoVyjoyujgVoymo2PXAQzhP&#xA;hPen2k+ZLacC3vXWC9UlCGBVHp0ZSRT4vCuZMMoOx5ut1OglH1QFw+0f2JvNNDDE0sziONBVnY0A&#xA;HuctJpwIQMjQFlDrrGksoZb2Ag9P3if1wcce9uOlyj+GXyKra3lpdxmS1lSaMHiWQgioANNvnhEg&#xA;eTXkxSgakKKC1fzBZadG68hNeU/d2qVLEnpWgPEfPITyiPvcnS6KeU90O9jaCeS4lu7lw9xccedF&#xA;4qAo2AHt75i2SbLtjwiIhEemKriwdirsVdirsVdirsVdirsVdiqZeV/969Q/54/qbLsHVxO0fph/&#xA;nfoZBmQ6pCap/vKfmP15CfJqydEmyti7FUZpn+9C/P8A41bJR5sf4o/joU4y1yXYq7FXYqg9ZZk0&#xA;e+dTRlt5Sp8CEOQyfSfc5GlF5YA/zh97FoVCwoo6KoA+gZiB3UjZK/Fi7FXYq7FVOaGOaMxyLyRu&#xA;o/2sSGUZGJsc0O+nRenwid4gdmoSQwPUMDWuCm0ZzdkAoj0IP99r9wxpq4z3qP1FSzcnYwli4gB4&#xA;oGYKpO3XZBjTZ4xrlv3/AI96pb2sFupWFeIPXckmgp3xApjPJKZsq2FrdirsVdirsVdirsVdirsV&#xA;dirsVTLyv/vXqH/PH9TZdg6uJ2j9MP8AO/QyDMh1SE1T/eU/MfryE+TVk6JNlbF2KozTP96F+f8A&#xA;xq2SjzY/xR/HQpxlrkuxV2KuxVBa5/xxdQ/5hpv+TZyGT6T7nJ0n99D+sPvYxH9hfkMxHcHmuxQ7&#xA;FXYq7FXYq7FXYq7FXYq7FXYq7FXYq7FXYq7FXYq7FXYq7FUy8r/716h/zx/U2XYOrido/TD/ADv0&#xA;MgzIdUhNU/3lPzH68hPk1ZOiTZWxdiqM0z/ehfn/AMatko82P8Ufx0KcZa5LsVdirsVQWuf8cXUP&#xA;+Yab/k2chk+k+5ydJ/fQ/rD72MR/YX5DMR3B5rsUOxV2KvLtL/MnzBHfPpz2qard3uu6rp9iZJVt&#xA;EhhsQrxqxSGTkKMdyK/PJU4cdRK653Ij5L4PzmnvNP066sNEWRr7TrzUpI5rsxCMWLsksYYQycif&#xA;TPE0HatOoeFRq7AIHME8+5klz56ij8hRebYrQMk1vFcLaSzxQAGWg4tNJRaAnsCT2Wu2Ct245vRx&#xA;sSb81Nb1gaS2jW8Fv/ufTS72k5kinjaEyJ6bvbBgkgqeXBWFBSvI0lwtH5mUqr+dX42Tv8wvMOq6&#xA;d5m8radbX91Y2OptfC/axtku7hhBCjx8I2gum2Y78U6Vr4gANmfIRKIBoG+X4KU2P5ma3pGnW9r5&#xA;ghjOp3Ml5Lay6pKmlF7K3YCJ5QYyFml5cVjCL03p1x4WuOolEVLnvz22XXn52Bba6vbDRxdWFlY2&#xA;mozySXJhk4XTiMoqCGQF0dv5qHffpV4UnV7WBsACir383JLa+vVXRxJp1hfWljPdG54yn66gZHWH&#xA;0iDx/aBcdqV7PCmWqonbYEfa9GyLluxV2KuxV2KuxV2KuxV2Ko3y3cxx6ndQPUSXCo0WxoRGDy36&#xA;bVy3CdyHH1+MnHGQ5Ru/iyXMl06E1T/eU/MfryE+TVk6JNlbF2KozTP96F+f/GrZKPNj/FH8dCnG&#xA;WuSweKS7lDO15c1Lv0nlA2cgUAbMGz3l6OUYjbhjyH8I7l9Lj/lsuv8ApIl/5qxs95R6f5sP9KP1&#xA;Opcf8tl1/wBJEv8AzVjZ7yvp/mw/0o/U08csiNHJdXLo4KujTykEHYggtjZ7ykSANiMb/qj9S8AA&#xA;ADoMWLeKHYq7FWJWv5a6Fb6pb6kk90Z7bUL3VEVnj4GbUFCSqQIweChfhFa+JOG2gaeIN+ZPzQmn&#xA;flH5bsLW1tobm8aO0sbzToy7xEmK+dnlZqRD4wZDx7eIOHiRHSxArfkR80yufIOjXHlG08rvLcCy&#xA;sRD9WuAyeurW7BkepQxk1HdKe2C2ZwAwEegQUX5XaRG8ko1G/a6k1KPWPrLNblxdxoycgPR4cWDm&#xA;qlflTDxMPyw7zzv4p5qflmw1HXdH1qeSVbrRDcG0RCojb61GIn9QFSxoo2oRgttljBkJdyzW/K1t&#xA;ql5b36Xdzp2o2scsEd7ZmNZPSmpzjb1UlUiqgj4ag7gjEFE8Ykb5FJ9R/KzQL9NSSe6vm/Slpb2N&#xA;y7TLI/p2rh0YPKkjF2K/EWJx4mEtNE3z3FOufys8vXCXyvcXYF/dWt7NR49pLJeMYWsf2SPtV+im&#xA;PEg6aJvnvX2MywOQ7FXYq7FXYq7FXYq7FXYqr6T/AMdy1/1Jf1DJ4vqDXqf7mXvDK8y3RoTVP95T&#xA;8x+vIT5NWTok2VsXYqjNM/3oX5/8atko82P8Ufx0Ktr2oXVjaxSWwQySSrH+8BZQCCeilfDxw5Zm&#xA;I2dro8EckiJXQF7MbgjaOIK5DNVixAoKsSduvjmKHbzkCdlTFg7FXYq7FXYq7FXYq7FXYq7FXYq7&#xA;FXYq7FXYq7FWO+ZPM9/pms6LpFhYxXl3rLXIjae4a2jj+rRCU8mSG4Y8hX9nCA1ZMhBAA5oXTfzE&#xA;0uSynl1VDY3dvqEulG1g9S8MtxCAT9WEUfqyrxbtGCO4GNMY5xW+29d6Ll8/eU47K0vBfGWG+WR7&#xA;VYIZ55XWD+9PoxI8qiP9uqjj3xpkc8KBvmlk/wCafl+311rKZ0GmHT4dQt9TjZpfVNxP6McUcEaM&#xA;7MSa/DU+2HhYHUxEq6VdptceefLFvqP6Olu2F36iQFVgnZBPIvNITIsZjErLuIy3L2wU2HNEGkr0&#xA;H8ztE1HRYtSvI5rGS4up7S3s1huJ5pWgYgmJEhEknwjk3FDw6E1GJiwhqIkWdkdL+YnkuJ9PR9TT&#xA;lqqq+n8UkYSh5RCACqkBvUbiVO43rsDjRZHPDbfmitL84eXNVvjZWN36txxeSOscqJKkbcHaCR1W&#xA;OZVbYmNmpjSY5YyNAsh0n/juWv8AqS/qGSxfUF1P9zL3hleZbo0Jqn+8p+Y/XkJ8mrJ0SbK2LsVR&#xA;mmf70L8/+NWyUebH+KP46Fb5r/3jtf8AmJT/AIi2DPy+Luuzfrl/VP6EnzHc92KuxV2KuxV2KuxV&#xA;2KuxV2KuxV2KuxV2KuxV2KuxVh3nnyje65q+g30NnYalbaU10bnT9Rdkil+sRCNOkNyPgYct17YQ&#xA;WjNiMiDQNd/4KQ6R+WfmHSrmy1e1ksxe2OpXt7baMJJUsYre/jETwRSiIupTjyBEXGv7OG2qOnlE&#xA;girBO3TdU0j8uvM2h6ha65YzWV3q7LfC/tp3mhtg17N64MLrHK9I2FCCvxD+XG0xwSieIVe/2pMn&#xA;5I63a3en3llqEBvNHsIV02eRpFH16O7a4cyJwf8AclJGQbk+2Hia/wAmQQQeQ299p7cfl75hk86r&#xA;r9pLb6Z6l1DPdz2dzco00CAepBPasjRSsxHH1A6Cm/CuC9mw4JcfENvx3LNJ/L3zNpUulX0DWU97&#xA;o11qJhheaVIp7bUXL1ZxA7RSIewVwfHG1jglGjtYv7Vfyv8AlpfaRrWn39zcQzrDZ3sd0ULhhc31&#xA;x6xMKspARVJWpavtviZJx6cxIJ7j9q7yX+XN9od/prXnoTQ6PFNFZ3f1u+nlf1vhqltI621sOGzq&#xA;oep6ccSVxYDEi+nmf7A9F0Nml8wKoXiLeNySTTkHA3Ud6HY4cX1N+sFYL/nEfYy7Mt0SE1T/AHlP&#xA;zH68hPk1ZOiTZWxdiqM0z/ehfn/xq2SjzY/xR/HQtealc2VuVRn4XCMwRSxACtvRQTgzjZ3PZxHG&#xA;bP8ACf0JHFIkqB0NVNaVBHQ06HMd2UokGivxYuxV2KuxV2KuxV2KuxV2KuxV2KuxV2KuxV2KuxV2&#xA;KuxV2KuxV2KuxV2KuxVQugyp9YjYpPbgyQyDqCBX7j0IwHvbMe54TvGWxZtbyGWCOUihdVYj5iuZ&#xA;wNh56cakR3IfVP8AeU/MfryM+Tj5OiTZWxdiqM0z/ehfn/xq2SjzY/xR/HQpxlrksUTQdbj5KsUL&#xA;LyYhjKRUMxPTgfHMTwpO8Oswne5fL9q79Da7/viD/kcf+qeHwpI/N4e+X+l/avtPLl5Nd8tQAjtl&#xA;jYBYZnqXLLQmgTtXDHCb3YZddCMf3e8r6xHL7Ue3lbSypAadSRQMJ5Kj33JyzwYuMO0cn9H/AEoQ&#xA;7eVXG0V/IB4SIjn7xwyPgebaO0R1gPgSP1uXytPX49Qan+REoP4lsHgeantGPSH2lWj8q6cq/HLc&#xA;Ssdy7TMv4JxX8MkMEWuXaWQ8hEfAfpQ+oeWSnovpvIyKx9VJppOJUqR3596dsjPD3N2HtC7GTl5R&#xA;H7EP+htd/wB8Qf8AI4/9U8j4Um383h75f6X9rv0Nrv8AviD/AJHH/qnj4Ul/N4e+X+l/avTy9rRQ&#xA;F5bdWI3UBzQ/OuPgyYnXYb2Evsb/AMO6v/v+3/4F/wCuHwZd6Pz2Lul9jv8ADur/AO/7f/gX/rj4&#xA;Mu9fz2Lul9ikNF14CjQwE9yJWA+7gcj4UmZ1eDvl8v2t/obXf98Qf8jj/wBU8PhSX83h75f6X9q+&#xA;18uX81wTfN6EASii3kqS9R15INqYY4Te7DJr4Rj6NzfUftRn+FLP/lquf+DX/mnJ+APNo/lKf82P&#xA;y/a7/Cln/wAtVz/wa/8ANOPgDzX+Up/zY/L9qi3lSUO3o37iM04rIgdht/NVf1ZHwPNsHaQreAvy&#xA;NO/wvd/9XD/kiP8AmrHwPNf5Rj/M/wBl+x3+F7v/AKuH/JEf81Y+B5r/ACjH+Z/sv2O/wvd/9XD/&#xA;AJIj/mrHwPNf5Rj/ADP9l+x3+F7v/q4f8kR/zVj4Hmv8ox/mf7L9i1/Kc0g4S33KMkclEQFQDWle&#xA;WPgeaR2mBuIb+/8AYgrjSdQ0+T0liku7X/dEsY5OB/K6jfbxyEsZj5hyMepx5RZIjLqDy+H6m7XS&#xA;L7UJBHLC9rZ/7ueQcXcfyIvXfuTjHGZc9gjJqoYhYIlPpXIeZ/Uy5VCqFUUUCgA7AZlujJtCap/v&#xA;KfmP15CfJpydEmyti7FVe1lMTc1pyB2DdOhHt44QWrKZCjEWUX+kp/CP7/7clxtf5jL/ADfsLv0l&#xA;P4R/f/bjxr+Yy/zfsLv0lP4R/f8A248a/mMv837C79JT+Ef3/wBuPGv5jL/N+wu/SU/hH9/9uPGv&#xA;5jL/ADfsLv0lP4R/f/bjxr+Yy/zfsLv0lP4R/f8A248a/mMv837C79JT+Ef3/wBuPGv5jL/N+wu/&#xA;SU/hH9/9uPGv5jL/ADfsLv0lP4R/f/bjxr+Yy/zfsLv0lP4R/f8A248a/mMv837C79JT+Ef3/wBu&#xA;PGv5jL/N+wu/SU/hH9/9uPGv5jL/ADfsLv0lP4R/f/bjxr+Yy/zfsLv0lP4R/f8A248a/mMv837C&#xA;79JT+Ef3/wBuPGv5jL/N+wu/SU/hH9/9uPGv5jL/ADfsLv0lP4R/f/bjxr+Yy/zfsLv0lP4R/f8A&#xA;248a/mMv837C79JT+Ef3/wBuPGv5jL/N+wu/SU/hH9/9uPGv5jL/ADfsLv0lP4R/f/bjxr+Yy/zf&#xA;sLv0lP4R/f8A248a/mMv837C79JT+Ef3/wBuPGv5jL/N+wu/SU/hH9/9uPGv5jL/ADfsLv0lP4R/&#xA;f/bjxr+Yy/zfsLv0lP4R/f8A248a/mMv837C79JT+Ef3/wBuPGv5jL/N+wqVxeSTQsr8B0I4netR&#xA;7nAZWyhlnI+oUgsi3ph+gNZ/5ZJPuGKXfoDWf+WST7hirv0BrP8AyySfcMVd+gNZ/wCWST7hirv0&#xA;BrP/ACySfcMVd+gNZ/5ZJPuGKu/QGs/8skn3DFXfoDWf+WST7hirv0BrP/LJJ9wxV36A1n/lkk+4&#xA;Yq79Aaz/AMskn3DFXfoDWf8Alkk+4Yq79Aaz/wAskn3DFXfoDWf+WST7hirv0BrP/LJJ9wxV36A1&#xA;n/lkk+4Yq79Aaz/yySfcMVd+gNZ/5ZJPuGKu/QGs/wDLJJ9wxV36A1n/AJZJPuGKu/QGs/8ALJJ9&#xA;wxV36A1n/lkk+4Yq79Aaz/yySfcMVd+gNZ/5ZJPuGKu/QGs/8skn3DFXfoDWf+WST7hirv0BrP8A&#xA;yySfcMVd+gNZ/wCWST7hirv0BrP/ACySfcMVd+gNZ/5ZJPuGKu/QGs/8skn3DFXfoDWf+WST7hir&#xA;/9k=</xmpGImg:image>
               </rdf:li>
            </rdf:Alt>
         </xmp:Thumbnails>
      </rdf:Description>
      <rdf:Description rdf:about=""
            xmlns:pdf="http://ns.adobe.com/pdf/1.3/">
         <pdf:Producer>Deneba PDF Filter 1.2.8.04 (Mac)</pdf:Producer>
         <pdf:Keywords>Penn, Penn Campus Map, Penn Campus, Penn Map, Campus Map, Campus, Map, University of Pennsylvania Campus Map, University of Pennsylvania Campus, University of Pennsylvania Map</pdf:Keywords>
      </rdf:Description>
      <rdf:Description rdf:about=""
            xmlns:xmpMM="http://ns.adobe.com/xap/1.0/mm/"
            xmlns:stRef="http://ns.adobe.com/xap/1.0/sType/ResourceRef#"
            xmlns:stEvt="http://ns.adobe.com/xap/1.0/sType/ResourceEvent#">
         <xmpMM:DocumentID>xmp.did:FB7F117407206811822A83FB056A8589</xmpMM:DocumentID>
         <xmpMM:InstanceID>xmp.iid:FB7F117407206811822A83FB056A8589</xmpMM:InstanceID>
         <xmpMM:OriginalDocumentID>uuid:4669bf92-5f62-6b45-9725-a3b87473ae39</xmpMM:OriginalDocumentID>
         <xmpMM:DerivedFrom rdf:parseType="Resource">
            <stRef:instanceID>xmp.iid:F97F117407206811822A83FB056A8589</stRef:instanceID>
            <stRef:documentID>xmp.did:F97F117407206811822A83FB056A8589</stRef:documentID>
            <stRef:originalDocumentID>uuid:4669bf92-5f62-6b45-9725-a3b87473ae39</stRef:originalDocumentID>
            <stRef:renditionClass>proof:pdf</stRef:renditionClass>
         </xmpMM:DerivedFrom>
         <xmpMM:History>
            <rdf:Seq>
               <rdf:li rdf:parseType="Resource">
                  <stEvt:action>saved</stEvt:action>
                  <stEvt:instanceID>xmp.iid:F97F117407206811822A83FB056A8589</stEvt:instanceID>
                  <stEvt:when>2016-02-05T13:22:12-05:00</stEvt:when>
                  <stEvt:softwareAgent>Adobe Illustrator CS6 (Macintosh)</stEvt:softwareAgent>
                  <stEvt:changed>/</stEvt:changed>
               </rdf:li>
               <rdf:li rdf:parseType="Resource">
                  <stEvt:action>saved</stEvt:action>
                  <stEvt:instanceID>xmp.iid:FB7F117407206811822A83FB056A8589</stEvt:instanceID>
                  <stEvt:when>2016-02-05T14:14:03-05:00</stEvt:when>
                  <stEvt:softwareAgent>Adobe Illustrator CS6 (Macintosh)</stEvt:softwareAgent>
                  <stEvt:changed>/</stEvt:changed>
               </rdf:li>
            </rdf:Seq>
         </xmpMM:History>
         <xmpMM:RenditionClass>proof:pdf</xmpMM:RenditionClass>
      </rdf:Description>
      <rdf:Description rdf:about=""
            xmlns:xmpTPg="http://ns.adobe.com/xap/1.0/t/pg/"
            xmlns:stDim="http://ns.adobe.com/xap/1.0/sType/Dimensions#"
            xmlns:stFnt="http://ns.adobe.com/xap/1.0/sType/Font#"
            xmlns:xmpG="http://ns.adobe.com/xap/1.0/g/">
         <xmpTPg:MaxPageSize rdf:parseType="Resource">
            <stDim:w>2.694444</stDim:w>
            <stDim:h>2.680556</stDim:h>
            <stDim:unit>Inches</stDim:unit>
         </xmpTPg:MaxPageSize>
         <xmpTPg:NPages>1</xmpTPg:NPages>
         <xmpTPg:HasVisibleTransparency>False</xmpTPg:HasVisibleTransparency>
         <xmpTPg:HasVisibleOverprint>False</xmpTPg:HasVisibleOverprint>
         <xmpTPg:Fonts>
            <rdf:Bag>
               <rdf:li rdf:parseType="Resource">
                  <stFnt:fontName>Helvetica-Bold</stFnt:fontName>
                  <stFnt:fontFamily>Helvetica</stFnt:fontFamily>
                  <stFnt:fontFace>Bold</stFnt:fontFace>
                  <stFnt:fontType>TrueType</stFnt:fontType>
                  <stFnt:versionString>10.0d1e1</stFnt:versionString>
                  <stFnt:composite>False</stFnt:composite>
                  <stFnt:fontFileName>Helvetica.dfont</stFnt:fontFileName>
               </rdf:li>
            </rdf:Bag>
         </xmpTPg:Fonts>
         <xmpTPg:PlateNames>
            <rdf:Seq>
               <rdf:li>Cyan</rdf:li>
               <rdf:li>Magenta</rdf:li>
               <rdf:li>Yellow</rdf:li>
               <rdf:li>Black</rdf:li>
            </rdf:Seq>
         </xmpTPg:PlateNames>
         <xmpTPg:SwatchGroups>
            <rdf:Seq>
               <rdf:li rdf:parseType="Resource">
                  <xmpG:groupName>Default Swatch Group</xmpG:groupName>
                  <xmpG:groupType>0</xmpG:groupType>
                  <xmpG:Colorants>
                     <rdf:Seq>
                        <rdf:li rdf:parseType="Resource">
                           <xmpG:swatchName>R=137 G=178 B=222</xmpG:swatchName>
                           <xmpG:mode>RGB</xmpG:mode>
                           <xmpG:type>PROCESS</xmpG:type>
                           <xmpG:red>137</xmpG:red>
                           <xmpG:green>178</xmpG:green>
                           <xmpG:blue>222</xmpG:blue>
                        </rdf:li>
                        <rdf:li rdf:parseType="Resource">
                           <xmpG:swatchName>R=56 G=85 B=155</xmpG:swatchName>
                           <xmpG:mode>RGB</xmpG:mode>
                           <xmpG:type>PROCESS</xmpG:type>
                           <xmpG:red>56</xmpG:red>
                           <xmpG:green>85</xmpG:green>
                           <xmpG:blue>155</xmpG:blue>
                        </rdf:li>
                        <rdf:li rdf:parseType="Resource">
                           <xmpG:swatchName>R=229 G=158 B=170</xmpG:swatchName>
                           <xmpG:mode>RGB</xmpG:mode>
                           <xmpG:type>PROCESS</xmpG:type>
                           <xmpG:red>229</xmpG:red>
                           <xmpG:green>158</xmpG:green>
                           <xmpG:blue>170</xmpG:blue>
                        </rdf:li>
                        <rdf:li rdf:parseType="Resource">
                           <xmpG:swatchName>R=231 G=98 B=114 1</xmpG:swatchName>
                           <xmpG:mode>RGB</xmpG:mode>
                           <xmpG:type>PROCESS</xmpG:type>
                           <xmpG:red>231</xmpG:red>
                           <xmpG:green>98</xmpG:green>
                           <xmpG:blue>114</xmpG:blue>
                        </rdf:li>
                        <rdf:li rdf:parseType="Resource">
                           <xmpG:swatchName>R=188 G=226 B=166</xmpG:swatchName>
                           <xmpG:mode>RGB</xmpG:mode>
                           <xmpG:type>PROCESS</xmpG:type>
                           <xmpG:red>188</xmpG:red>
                           <xmpG:green>226</xmpG:green>
                           <xmpG:blue>166</xmpG:blue>
                        </rdf:li>
                     </rdf:Seq>
                  </xmpG:Colorants>
               </rdf:li>
            </rdf:Seq>
         </xmpTPg:SwatchGroups>
      </rdf:Description>
   </rdf:RDF>
</x:xmpmeta>
                                                                                                    
                                                                                                    
                                                                                                    
                                                                                                    
                                                                                                    
                                                                                                    
                                                                                                    
                                                                                                    
                                                                                                    
                                                                                                    
                                                                                                    
                                                                                                    
                                                                                                    
                                                                                                    
                                                                                                    
                                                                                                    
                                                                                                    
                                                                                                    
                                                                                                    
                                                                                                    
                           
<?xpacket end="w"?>
	</metadata>
<polyline style="&st11;" points="0,0 193.998,0 193.998,192.833 0,192.833 0,0 "/>
<g id="Background">
	<polyline style="&st13;" points="10.101,102.945 185.63,102.945 185.63,186.466 10.101,186.466 10.101,102.945 	"/>
	<rect x="10.101" y="102.945" style="&st15;" width="175.529" height="83.521"/>
	<polyline style="&st13;" points="10.101,12.465 84.981,12.465 84.981,95.985 10.101,95.985 10.101,12.465 	"/>
	<rect x="10.101" y="12.465" style="&st15;" width="74.88" height="83.521"/>
	<polyline style="&st13;" points="92.917,15.148 179.798,15.148 179.798,95.405 92.917,95.405 92.917,15.148 	"/>
	<rect x="92.917" y="15.148" style="&st15;" width="86.881" height="80.257"/>
	<polyline style="&st2;" points="10.101,102.945 185.63,102.945 185.63,186.466 10.101,186.466 10.101,102.945 	"/>
	<rect x="10.101" y="102.945" style="&st1;" width="175.529" height="83.521"/>
	<polyline style="&st2;" points="10.101,12.465 84.981,12.465 84.981,95.985 10.101,95.985 10.101,12.465 	"/>
	<rect x="10.101" y="12.465" style="&st1;" width="74.88" height="83.521"/>
	<polyline style="&st2;" points="91.701,12.465 185.542,12.465 185.542,95.985 91.701,95.985 91.701,12.465 	"/>
	<rect x="91.701" y="12.465" style="&st1;" width="93.841" height="83.521"/>
	<polyline style="&st11;" points="18.836,154.22 18.831,133.028 42.179,133.045 42.183,154.187 18.836,154.22 	"/>
	<polygon style="&st14;" points="18.836,154.22 18.831,133.028 42.179,133.045 42.183,154.187 	"/>
	<polyline style="&st11;" points="29.972,165.355 29.966,144.164 53.314,144.181 53.318,165.323 29.972,165.355 	"/>
	<polygon style="&st14;" points="29.972,165.355 29.966,144.164 53.314,144.181 53.318,165.323 	"/>
	<line style="&st10;" x1="13.397" y1="15.82" x2="13.397" y2="92.765"/>
	<line style="&st10;" x1="182.294" y1="15.82" x2="182.294" y2="93.005"/>
	<line style="&st10;" x1="13.525" y1="15.628" x2="81.782" y2="15.628"/>
	<polyline style="&st5;" points="125.464,15.148 179.798,15.148 179.798,95.405 125.464,95.405 125.464,15.148 	"/>
	<rect x="125.464" y="15.148" style="&st7;" width="54.334" height="80.257"/>
	<line style="&st12;" x1="82.742" y1="14.765" x2="82.742" y2="93.485"/>
	<path style="&st20;" d="M48.589,39.089c-21.457,0-12.159,10.013-33.528,14.075"/>
	<polyline style="&st5;" points="11.077,103.469 185.079,103.469 185.079,183.726 11.077,183.726 11.077,103.469 	"/>
	<rect x="11.077" y="103.469" style="&st7;" width="174.001" height="80.257"/>
	<line style="&st10;" x1="182.102" y1="15.628" x2="94.982" y2="15.628"/>
	<line style="&st4;" x1="83.214" y1="94.982" x2="12.058" y2="94.982"/>
	<polyline style="&st11;" points="68.695,100.069 72.261,107.475 72.713,116.529 74.043,122.149 78.817,127.233 88.074,128.337 
		98.829,127.3 102.707,122.424 104.131,117.211 104.161,107.451 109.975,100.069 68.695,100.069 	"/>
	<polygon style="&st14;" points="68.695,100.069 72.261,107.475 72.713,116.529 74.043,122.149 78.817,127.233 88.074,128.337 
		98.829,127.3 102.707,122.424 104.131,117.211 104.161,107.451 109.975,100.069 	"/>
	<polyline style="&st5;" points="66.064,102.836 74.004,127.16 89.222,128.826 101.463,127.493 112.049,102.836 108.08,102.836 
		102.125,108.167 102.125,119.163 94.185,127.493 82.936,127.493 74.666,119.163 74.666,108.501 69.372,102.836 66.064,102.836 	"/>
	<polyline style="&st5;" points="66.229,103.003 74.169,127.327 89.387,128.993 101.628,127.66 112.215,103.003 108.245,103.003 
		102.29,108.334 102.29,119.33 94.35,127.66 83.102,127.66 74.831,119.33 74.831,108.667 69.538,103.003 66.229,103.003 	"/>
	<polygon style="&st6;" points="66.229,103.003 74.169,127.327 89.387,128.993 101.628,127.66 112.215,103.003 108.245,103.003 
		102.29,108.334 102.29,119.33 94.35,127.66 83.102,127.66 74.831,119.33 74.831,108.667 69.538,103.003 	"/>
	<polyline style="&st16;" points="85.252,102.836 81.613,106.501 81.613,111.5 88.333,118.494 95.508,111.5 95.508,106.501 
		91.869,102.836 85.252,102.836 	"/>
	<polyline style="&st16;" points="85.417,103.003 81.778,106.668 81.778,111.666 95.673,111.666 95.673,106.668 92.034,103.003 
		85.417,103.003 	"/>
	<polygon style="&st19;" points="85.417,103.003 81.778,106.668 81.778,111.666 95.673,111.666 95.673,106.668 92.034,103.003 	"/>
	<polyline style="&st16;" points="92.034,103.003 93.357,103.336 94.35,104.002 95.342,105.335 95.673,106.668 	"/>
	<polyline style="&st19;" points="92.034,103.003 93.357,103.336 94.35,104.002 95.342,105.335 95.673,106.668 	"/>
	<polyline style="&st16;" points="88.726,118.33 87.402,118.33 86.079,117.997 84.756,117.331 83.763,116.331 83.102,115.332 
		82.44,114.332 82.109,112.999 81.778,111.666 	"/>
	<polyline style="&st19;" points="88.726,118.33 87.402,118.33 86.079,117.997 84.756,117.331 83.763,116.331 83.102,115.332 
		82.44,114.332 82.109,112.999 81.778,111.666 	"/>
	<polyline style="&st16;" points="81.778,106.668 82.109,105.335 82.771,104.002 84.094,103.336 85.417,103.003 	"/>
	<polyline style="&st19;" points="81.778,106.668 82.109,105.335 82.771,104.002 84.094,103.336 85.417,103.003 	"/>
	<path style="&st5;" d="M102.323,108.833c0-3.16,2.86-5.76,6.336-5.76v5.76H102.323"/>
	<path style="&st3;" d="M102.323,108.833c0-3.16,2.86-5.76,6.336-5.76"/>
	<path style="&st11;" d="M83.891,127.553c-4.95,0-9.024-4.074-9.024-9.024h9.024L83.891,127.553"/>
	<path style="&st3;" d="M83.891,127.553c-4.95,0-9.024-4.074-9.024-9.024"/>
	<path style="&st11;" d="M102.235,118.337c0,4.95-4.074,9.024-9.024,9.024v-9.024H102.235"/>
	<path style="&st3;" d="M102.235,118.337c0,4.95-4.074,9.024-9.024,9.024"/>
	<path style="&st5;" d="M68.394,102.977c3.476,0,6.336,2.601,6.336,5.76h-6.336V102.977"/>
	<path style="&st3;" d="M68.394,102.977c3.476,0,6.336,2.601,6.336,5.76"/>
	<polyline style="&st16;" points="88.635,118.331 89.959,118.331 91.282,117.997 92.605,117.331 93.598,116.331 94.26,115.332 
		94.921,114.332 95.252,112.999 95.583,111.667 	"/>
	<polyline style="&st19;" points="88.635,118.331 89.959,118.331 91.282,117.997 92.605,117.331 93.598,116.331 94.26,115.332 
		94.921,114.332 95.252,112.999 95.583,111.667 	"/>
	<line style="&st4;" x1="183.964" y1="94.904" x2="93.136" y2="94.904"/>
	<line style="&st12;" x1="93.714" y1="14.794" x2="93.714" y2="93.515"/>
	<polyline style="&st5;" points="53.851,33.92 65.601,33.92 65.521,42.016 81.817,42.016 81.817,50.608 65.521,50.608 65.601,53.92 
		53.851,53.92 53.851,33.92 	"/>
	<polygon style="&st7;" points="53.851,33.92 65.601,33.92 65.521,42.016 81.817,42.016 81.817,50.608 65.521,50.608 65.601,53.92 
		53.851,53.92 	"/>
	<path style="&st0;" d="M126.556,61.867c-29.628,0.593,0-34.369-30.813-43.554"/>
	<path style="&st0;" d="M81.224,18.313c-5.926,17.48-17.185,6.222-18.073,17.185"/>
	<polyline style="&st5;" points="94.756,41.72 128.63,41.72 128.63,51.201 94.756,51.201 94.756,41.72 	"/>
	<rect x="94.756" y="41.72" style="&st7;" width="33.874" height="9.481"/>
	<path style="&st8;" d="M16.769,115.78c0-4.316,3.728-7.87,8.256-7.87v7.87H16.769"/>
	<g>
		<path d="M88.48,96.901c0.296-0.042,0.518-0.124,0.664-0.247c0.267-0.225,0.399-0.609,0.399-1.153c0-0.326-0.035-0.591-0.105-0.794
			c-0.135-0.386-0.385-0.579-0.751-0.579c-0.214,0-0.38,0.095-0.497,0.284c-0.114,0.189-0.215,0.489-0.303,0.899l-0.154,0.701
			c-0.152,0.689-0.317,1.163-0.496,1.42c-0.299,0.437-0.767,0.655-1.402,0.655c-0.58,0-1.062-0.213-1.445-0.641
			s-0.576-1.054-0.576-1.882c0-0.691,0.182-1.28,0.543-1.768c0.362-0.488,0.887-0.744,1.575-0.768v1.301
			c-0.39,0.024-0.666,0.198-0.83,0.522c-0.108,0.216-0.163,0.485-0.163,0.807c0,0.357,0.07,0.643,0.211,0.856s0.337,0.32,0.589,0.32
			c0.231,0,0.404-0.105,0.519-0.315c0.076-0.135,0.166-0.422,0.269-0.86l0.268-1.137c0.117-0.499,0.274-0.872,0.471-1.121
			c0.305-0.386,0.745-0.579,1.322-0.579c0.592,0,1.083,0.229,1.475,0.687c0.391,0.457,0.587,1.104,0.587,1.938
			c0,0.853-0.192,1.523-0.578,2.012c-0.385,0.489-0.915,0.733-1.589,0.733V96.901z"/>
	</g>
	<g>
		<path d="M86.625,92.467h-0.892v-0.668h-1.336V90.56h1.336v-0.778h0.892v0.778h2.531c0.196,0,0.318-0.025,0.367-0.075
			c0.048-0.05,0.072-0.202,0.072-0.457c0-0.038,0-0.078-0.002-0.121c-0.001-0.042-0.004-0.084-0.007-0.125h0.937l0.021,0.593
			c0.021,0.592-0.082,0.996-0.308,1.213c-0.144,0.141-0.364,0.211-0.663,0.211h-2.949V92.467z"/>
	</g>
	<g>
		<path d="M85.787,85.856c0.149-0.334,0.386-0.61,0.709-0.828c0.284-0.196,0.614-0.323,0.99-0.381
			c0.22-0.034,0.537-0.048,0.95-0.042v3.489c0.48-0.02,0.817-0.187,1.011-0.501c0.12-0.191,0.181-0.421,0.181-0.69
			c0-0.285-0.073-0.517-0.22-0.695c-0.079-0.098-0.189-0.184-0.33-0.258v-1.279c0.284,0.034,0.573,0.188,0.866,0.464
			c0.466,0.429,0.698,1.03,0.698,1.802c0,0.637-0.196,1.2-0.589,1.687c-0.394,0.487-1.032,0.731-1.918,0.731
			c-0.83,0-1.466-0.22-1.909-0.66c-0.442-0.44-0.664-1.011-0.664-1.713C85.562,86.566,85.637,86.19,85.787,85.856z M86.869,87.73
			c0.183,0.177,0.43,0.288,0.741,0.333v-2.158c-0.332,0.023-0.585,0.134-0.757,0.333s-0.258,0.447-0.258,0.743
			C86.595,87.304,86.686,87.553,86.869,87.73z"/>
	</g>
	<g>
		<path d="M85.689,81.021v-1.345l4.79,1.73v1.32l-4.79,1.718v-1.406l3.533-0.998L85.689,81.021z"/>
	</g>
	<g>
		<path d="M85.787,75.845c0.149-0.334,0.386-0.61,0.709-0.828c0.284-0.196,0.614-0.323,0.99-0.381
			c0.22-0.034,0.537-0.048,0.95-0.042v3.489c0.48-0.02,0.817-0.187,1.011-0.501c0.12-0.191,0.181-0.421,0.181-0.69
			c0-0.285-0.073-0.517-0.22-0.695c-0.079-0.098-0.189-0.184-0.33-0.258V74.66c0.284,0.034,0.573,0.188,0.866,0.464
			c0.466,0.429,0.698,1.03,0.698,1.802c0,0.637-0.196,1.2-0.589,1.687c-0.394,0.487-1.032,0.731-1.918,0.731
			c-0.83,0-1.466-0.22-1.909-0.66c-0.442-0.44-0.664-1.011-0.664-1.713C85.562,76.555,85.637,76.18,85.787,75.845z M86.869,77.719
			c0.183,0.177,0.43,0.288,0.741,0.333v-2.158c-0.332,0.023-0.585,0.134-0.757,0.333s-0.258,0.447-0.258,0.743
			C86.595,77.293,86.686,77.542,86.869,77.719z"/>
	</g>
	<g>
		<path d="M84.002,67.063v-1.948h6.478v1.261h-4.382c-0.126,0-0.302-0.001-0.529-0.004c-0.227-0.003-0.402-0.004-0.525-0.004
			l5.437,1.228v1.315l-5.437,1.219c0.123,0,0.299-0.001,0.525-0.004c0.228-0.003,0.403-0.004,0.529-0.004h4.382v1.261h-6.478v-1.97
			l5.093-1.179L84.002,67.063z"/>
	</g>
	<g>
		<path d="M85.69,62.716h2.887c0.272,0,0.478-0.032,0.615-0.096c0.243-0.114,0.365-0.337,0.365-0.669
			c0-0.426-0.173-0.717-0.519-0.875c-0.188-0.082-0.436-0.123-0.743-0.123H85.69v-1.27h4.79v1.217h-0.677
			c0.015,0.012,0.059,0.041,0.132,0.087c0.073,0.047,0.138,0.103,0.193,0.167c0.176,0.196,0.296,0.385,0.36,0.568
			s0.097,0.396,0.097,0.642c0,0.707-0.255,1.183-0.765,1.428c-0.281,0.138-0.696,0.206-1.244,0.206H85.69V62.716z"/>
	</g>
	<g>
		<path d="M85.577,55.805c0.002-0.016,0.004-0.052,0.007-0.107h1.283c-0.009,0.079-0.015,0.149-0.018,0.211
			s-0.004,0.111-0.004,0.149c0,0.504,0.164,0.842,0.492,1.015c0.185,0.097,0.469,0.145,0.853,0.145h2.289v1.261h-4.79v-1.195h0.835
			c-0.319-0.193-0.537-0.362-0.654-0.505c-0.196-0.234-0.295-0.539-0.295-0.914C85.575,55.841,85.576,55.821,85.577,55.805z"/>
	</g>
	<g>
		<path d="M85.578,52.303c0.002-0.016,0.004-0.052,0.007-0.107h1.283c-0.009,0.079-0.015,0.149-0.018,0.211
			s-0.005,0.111-0.005,0.149c0,0.504,0.164,0.842,0.492,1.015c0.185,0.097,0.469,0.145,0.853,0.145h2.29v1.261h-4.79v-1.195h0.835
			c-0.319-0.193-0.538-0.362-0.655-0.505c-0.196-0.234-0.294-0.539-0.294-0.914C85.576,52.339,85.577,52.319,85.578,52.303z"/>
	</g>
	<g>
		<path d="M87.566,49.565c-0.029-0.233-0.066-0.4-0.11-0.5c-0.076-0.18-0.194-0.27-0.355-0.27c-0.196,0-0.332,0.069-0.407,0.207
			c-0.074,0.138-0.111,0.341-0.111,0.608c0,0.3,0.073,0.513,0.22,0.637c0.108,0.089,0.255,0.148,0.439,0.178v1.208
			c-0.419-0.026-0.764-0.144-1.033-0.353c-0.422-0.333-0.633-0.903-0.633-1.712c0-0.527,0.104-0.995,0.312-1.404
			c0.208-0.409,0.601-0.613,1.178-0.613h2.197c0.152,0,0.337-0.003,0.554-0.009c0.164-0.009,0.275-0.034,0.334-0.075
			s0.106-0.103,0.145-0.185h0.185v1.362c-0.097,0.038-0.188,0.064-0.272,0.079s-0.182,0.026-0.29,0.035
			c0.188,0.174,0.348,0.375,0.479,0.601c0.155,0.271,0.232,0.578,0.232,0.919c0,0.436-0.124,0.796-0.371,1.081
			c-0.247,0.285-0.599,0.427-1.053,0.427c-0.589,0-1.015-0.229-1.278-0.686c-0.144-0.251-0.246-0.62-0.308-1.107L87.566,49.565z
			 M88.15,48.799c0.05,0.08,0.09,0.161,0.121,0.243c0.03,0.082,0.06,0.194,0.086,0.336l0.053,0.285
			c0.047,0.267,0.104,0.459,0.171,0.576c0.114,0.197,0.292,0.296,0.532,0.296c0.214,0,0.368-0.06,0.463-0.181
			c0.096-0.121,0.144-0.267,0.144-0.439c0-0.274-0.079-0.526-0.237-0.756s-0.447-0.351-0.866-0.359H88.15z"/>
	</g>
	<g>
		<path d="M91.398,46.267l0.009-0.158c0.006-0.123,0.002-0.24-0.013-0.352s-0.049-0.205-0.102-0.281
			c-0.05-0.073-0.153-0.141-0.312-0.205c-0.158-0.062-0.255-0.09-0.29-0.081l-5.001,1.76v-1.393l3.533-1.046l-3.533-0.989v-1.332
			l4.711,1.643c0.908,0.317,1.471,0.568,1.689,0.753c0.218,0.185,0.327,0.554,0.327,1.109c0,0.111-0.001,0.201-0.002,0.268
			c-0.002,0.068-0.007,0.169-0.016,0.304H91.398z"/>
	</g>
	<g>
		<path d="M84.001,40.4l2.677,0.22v0.76l-2.677,0.22V40.4z"/>
	</g>
	<g>
		<path d="M88.95,38.339c0.223-0.026,0.381-0.084,0.475-0.172c0.167-0.156,0.251-0.444,0.251-0.865c0-0.248-0.037-0.444-0.11-0.589
			c-0.073-0.146-0.183-0.219-0.329-0.219c-0.141,0-0.248,0.059-0.321,0.176c-0.073,0.117-0.199,0.554-0.378,1.31
			c-0.135,0.544-0.303,0.928-0.505,1.15c-0.199,0.223-0.486,0.334-0.861,0.334c-0.442,0-0.822-0.174-1.141-0.522
			c-0.317-0.348-0.477-0.837-0.477-1.469c0-0.599,0.119-1.087,0.357-1.464c0.239-0.377,0.651-0.594,1.237-0.649v1.252
			c-0.161,0.018-0.288,0.063-0.382,0.137c-0.17,0.138-0.255,0.373-0.255,0.705c0,0.273,0.042,0.468,0.127,0.584
			c0.085,0.116,0.185,0.174,0.299,0.174c0.144,0,0.248-0.062,0.312-0.185c0.067-0.124,0.183-0.559,0.347-1.308
			c0.117-0.499,0.295-0.873,0.532-1.122c0.24-0.246,0.54-0.369,0.9-0.369c0.475,0,0.862,0.177,1.162,0.531
			c0.301,0.354,0.451,0.9,0.451,1.64c0,0.754-0.159,1.312-0.478,1.671c-0.317,0.36-0.723,0.54-1.215,0.54V38.339z"/>
	</g>
	<g>
		<path d="M84.001,30.822l3.71-0.855l1.032-0.187l-1.012-0.187l-3.73-0.732v-1.428l3.709-0.77l1.033-0.197l-0.993-0.2l-3.749-0.864
			v-1.378l6.478,1.822v1.296l-3.788,0.782l-1.252,0.229l1.252,0.229l3.788,0.782v1.257l-6.478,1.836V30.822z"/>
	</g>
	<g>
		<path d="M87.566,21.413c-0.029-0.233-0.066-0.4-0.11-0.5c-0.076-0.18-0.194-0.27-0.355-0.27c-0.196,0-0.332,0.069-0.407,0.207
			c-0.074,0.138-0.111,0.341-0.111,0.608c0,0.3,0.073,0.513,0.22,0.637c0.108,0.089,0.255,0.148,0.439,0.178v1.208
			c-0.419-0.026-0.764-0.144-1.033-0.353c-0.422-0.333-0.633-0.903-0.633-1.712c0-0.527,0.104-0.995,0.312-1.404
			c0.208-0.409,0.601-0.613,1.178-0.613h2.197c0.152,0,0.337-0.003,0.554-0.009c0.164-0.009,0.275-0.034,0.334-0.075
			s0.106-0.103,0.145-0.185h0.185v1.362c-0.097,0.038-0.188,0.064-0.272,0.079s-0.182,0.026-0.29,0.035
			c0.188,0.174,0.348,0.375,0.479,0.601c0.155,0.271,0.232,0.578,0.232,0.919c0,0.436-0.124,0.796-0.371,1.081
			c-0.247,0.285-0.599,0.427-1.053,0.427c-0.589,0-1.015-0.229-1.278-0.686c-0.144-0.251-0.246-0.62-0.308-1.107L87.566,21.413z
			 M88.15,20.646c0.05,0.08,0.09,0.161,0.121,0.243c0.03,0.082,0.06,0.194,0.086,0.336l0.053,0.285
			c0.047,0.267,0.104,0.459,0.171,0.576c0.114,0.197,0.292,0.296,0.532,0.296c0.214,0,0.368-0.06,0.463-0.181
			c0.096-0.121,0.144-0.267,0.144-0.439c0-0.274-0.079-0.526-0.237-0.756s-0.447-0.351-0.866-0.359H88.15z"/>
	</g>
	<g>
		<path d="M91.398,18.116l0.009-0.158c0.006-0.123,0.001-0.24-0.014-0.352s-0.048-0.205-0.101-0.281
			c-0.05-0.073-0.154-0.141-0.312-0.205c-0.158-0.062-0.255-0.09-0.29-0.081l-5.001,1.76v-1.393l3.533-1.046l-3.533-0.989V14.04
			l4.711,1.643c0.908,0.317,1.472,0.568,1.69,0.753c0.218,0.185,0.327,0.554,0.327,1.109c0,0.111-0.001,0.201-0.002,0.268
			c-0.002,0.068-0.007,0.169-0.016,0.304H91.398z"/>
	</g>
</g>
<g id="Sansom_x5F_Place_x5F_West">
	<polyline id="Object_3_" style="&st9;" points="48.576,33.88 48.576,38.141 46.102,38.141 46.102,48.175 48.576,48.175 
		48.576,52.573 43.353,52.573 43.353,92.709 59.022,92.709 59.022,52.573 54.211,52.573 54.211,48.175 55.999,48.175 55.999,38.003 
		54.074,38.003 54.074,33.88 59.022,33.88 59.022,16.286 17.787,16.286 17.787,33.88 48.576,33.88 	"/>
	<g id="Text_3_">
		<g>
			<path d="M20.055,20.796c0.042,0.296,0.124,0.517,0.247,0.664c0.225,0.267,0.609,0.4,1.153,0.4c0.326,0,0.591-0.035,0.794-0.105
				c0.386-0.135,0.579-0.385,0.579-0.751c0-0.214-0.095-0.379-0.284-0.497c-0.189-0.114-0.489-0.215-0.899-0.303l-0.701-0.154
				c-0.689-0.152-1.163-0.318-1.42-0.497c-0.437-0.299-0.655-0.766-0.655-1.402c0-0.58,0.213-1.062,0.641-1.446
				s1.054-0.576,1.882-0.576c0.691,0,1.28,0.181,1.768,0.542c0.488,0.362,0.744,0.887,0.768,1.576h-1.301
				c-0.024-0.39-0.198-0.667-0.522-0.831c-0.216-0.108-0.485-0.163-0.807-0.163c-0.357,0-0.643,0.07-0.856,0.211
				s-0.32,0.337-0.32,0.589c0,0.231,0.105,0.404,0.315,0.519c0.135,0.076,0.422,0.166,0.86,0.268l1.137,0.268
				c0.499,0.117,0.872,0.274,1.121,0.47c0.386,0.305,0.579,0.746,0.579,1.323c0,0.592-0.229,1.083-0.687,1.474
				c-0.457,0.391-1.104,0.587-1.938,0.587c-0.853,0-1.523-0.192-2.012-0.578c-0.489-0.385-0.733-0.915-0.733-1.588H20.055z"/>
		</g>
		<g>
			<path d="M26.878,19.882c0.233-0.029,0.4-0.066,0.5-0.11c0.18-0.076,0.27-0.195,0.27-0.356c0-0.196-0.069-0.332-0.207-0.407
				s-0.341-0.112-0.608-0.112c-0.3,0-0.513,0.073-0.637,0.22c-0.089,0.108-0.148,0.255-0.178,0.439H24.81
				c0.026-0.419,0.144-0.763,0.353-1.033c0.333-0.422,0.903-0.633,1.712-0.633c0.527,0,0.995,0.104,1.404,0.312
				c0.409,0.208,0.613,0.601,0.613,1.178v2.197c0,0.152,0.003,0.337,0.009,0.554c0.009,0.164,0.034,0.275,0.075,0.334
				s0.103,0.107,0.185,0.145v0.185h-1.362c-0.038-0.097-0.064-0.188-0.079-0.272s-0.026-0.182-0.035-0.29
				c-0.174,0.188-0.375,0.347-0.601,0.479c-0.271,0.155-0.578,0.233-0.919,0.233c-0.436,0-0.796-0.124-1.081-0.372
				c-0.285-0.247-0.427-0.598-0.427-1.052c0-0.589,0.229-1.015,0.686-1.279c0.251-0.144,0.62-0.246,1.107-0.308L26.878,19.882z
				 M27.645,20.467c-0.08,0.05-0.161,0.09-0.243,0.121c-0.082,0.031-0.194,0.06-0.336,0.086l-0.285,0.053
				c-0.267,0.047-0.459,0.104-0.576,0.171c-0.197,0.114-0.296,0.292-0.296,0.532c0,0.214,0.06,0.369,0.181,0.463
				c0.121,0.096,0.267,0.143,0.439,0.143c0.274,0,0.526-0.079,0.756-0.237s0.351-0.447,0.359-0.866V20.467z"/>
		</g>
		<g>
			<path d="M33.85,18.28c0.313,0.259,0.47,0.689,0.47,1.29v3.226h-1.283v-2.914c0-0.252-0.033-0.445-0.1-0.58
				c-0.123-0.246-0.355-0.369-0.698-0.369c-0.422,0-0.711,0.18-0.868,0.541c-0.082,0.19-0.122,0.434-0.122,0.729v2.593h-1.252
				v-4.781h1.213v0.699c0.161-0.246,0.312-0.423,0.455-0.532c0.257-0.193,0.582-0.29,0.976-0.29
				C33.133,17.892,33.536,18.021,33.85,18.28z"/>
		</g>
		<g>
			<path d="M36.456,21.267c0.026,0.223,0.084,0.381,0.172,0.475c0.156,0.167,0.444,0.25,0.865,0.25c0.248,0,0.444-0.037,0.589-0.11
				c0.146-0.073,0.219-0.183,0.219-0.33c0-0.141-0.059-0.248-0.176-0.321c-0.117-0.073-0.554-0.199-1.31-0.378
				c-0.544-0.135-0.928-0.303-1.15-0.505c-0.223-0.199-0.334-0.486-0.334-0.861c0-0.442,0.174-0.822,0.522-1.141
				c0.348-0.317,0.837-0.477,1.469-0.477c0.599,0,1.087,0.12,1.464,0.358c0.377,0.239,0.594,0.651,0.649,1.237h-1.252
				c-0.018-0.161-0.063-0.289-0.137-0.382c-0.138-0.17-0.373-0.255-0.705-0.255c-0.273,0-0.468,0.042-0.584,0.127
				c-0.116,0.085-0.174,0.185-0.174,0.299c0,0.144,0.062,0.248,0.185,0.312c0.124,0.067,0.559,0.183,1.308,0.347
				c0.499,0.117,0.873,0.294,1.122,0.532c0.246,0.24,0.369,0.541,0.369,0.901c0,0.475-0.177,0.862-0.531,1.162
				c-0.354,0.3-0.9,0.451-1.64,0.451c-0.754,0-1.312-0.159-1.671-0.477c-0.36-0.317-0.54-0.723-0.54-1.215H36.456z"/>
		</g>
		<g>
			<path d="M44.485,22.21c-0.404,0.499-1.018,0.749-1.841,0.749s-1.437-0.25-1.841-0.749s-0.606-1.1-0.606-1.803
				c0-0.69,0.202-1.289,0.606-1.795s1.018-0.76,1.841-0.76s1.437,0.253,1.841,0.76s0.606,1.105,0.606,1.795
				C45.091,21.11,44.889,21.711,44.485,22.21z M43.483,21.518c0.196-0.26,0.294-0.63,0.294-1.11c0-0.479-0.098-0.849-0.294-1.108
				c-0.196-0.259-0.478-0.388-0.844-0.388s-0.648,0.129-0.846,0.388c-0.198,0.259-0.297,0.628-0.297,1.108
				c0,0.48,0.099,0.85,0.297,1.11c0.198,0.261,0.479,0.391,0.846,0.391S43.287,21.778,43.483,21.518z"/>
		</g>
		<g>
			<path d="M51.964,18.023c0.205,0.082,0.391,0.226,0.558,0.431c0.135,0.167,0.226,0.372,0.272,0.615
				c0.029,0.161,0.044,0.397,0.044,0.708l-0.009,3.019h-1.283v-3.05c0-0.182-0.029-0.331-0.088-0.448
				c-0.111-0.223-0.316-0.334-0.615-0.334c-0.346,0-0.584,0.144-0.716,0.431c-0.067,0.152-0.101,0.335-0.101,0.549v2.852h-1.261
				v-2.852c0-0.284-0.029-0.491-0.088-0.62c-0.105-0.231-0.312-0.347-0.62-0.347c-0.357,0-0.598,0.116-0.721,0.347
				c-0.067,0.132-0.101,0.328-0.101,0.589v2.883h-1.27v-4.781h1.217v0.699c0.155-0.249,0.302-0.426,0.439-0.532
				c0.243-0.188,0.558-0.281,0.945-0.281c0.366,0,0.662,0.081,0.888,0.242c0.182,0.149,0.319,0.341,0.413,0.576
				c0.164-0.281,0.368-0.488,0.611-0.62c0.258-0.132,0.545-0.198,0.861-0.198C51.551,17.9,51.759,17.941,51.964,18.023z"/>
		</g>
		<g>
			<path d="M29.174,29.993c-0.379,0.316-0.92,0.475-1.625,0.475h-1.349v2.329h-1.345v-6.478h2.781c0.641,0,1.152,0.167,1.534,0.501
				s0.572,0.851,0.572,1.551C29.743,29.136,29.554,29.676,29.174,29.993z M28.141,27.659c-0.171-0.144-0.411-0.215-0.72-0.215h-1.22
				v1.907h1.22c0.309,0,0.549-0.078,0.72-0.233s0.257-0.401,0.257-0.738S28.312,27.803,28.141,27.659z"/>
		</g>
		<g>
			<path d="M32.006,32.796h-1.252v-6.478h1.252V32.796z"/>
		</g>
		<g>
			<path d="M35.125,29.883c0.233-0.029,0.4-0.066,0.5-0.11c0.18-0.076,0.27-0.195,0.27-0.356c0-0.196-0.069-0.332-0.207-0.407
				s-0.341-0.112-0.608-0.112c-0.3,0-0.513,0.073-0.637,0.22c-0.089,0.108-0.148,0.255-0.178,0.439h-1.208
				c0.026-0.419,0.144-0.763,0.353-1.033c0.333-0.422,0.903-0.633,1.712-0.633c0.527,0,0.995,0.104,1.404,0.312
				c0.409,0.208,0.613,0.601,0.613,1.178v2.197c0,0.152,0.003,0.337,0.009,0.554c0.009,0.164,0.034,0.275,0.075,0.334
				s0.103,0.107,0.185,0.145v0.185h-1.362c-0.038-0.097-0.064-0.188-0.079-0.272s-0.026-0.182-0.035-0.29
				c-0.174,0.188-0.375,0.347-0.601,0.479c-0.271,0.155-0.578,0.233-0.919,0.233c-0.436,0-0.796-0.124-1.081-0.372
				c-0.285-0.247-0.427-0.598-0.427-1.052c0-0.589,0.229-1.015,0.686-1.279c0.251-0.144,0.62-0.246,1.107-0.308L35.125,29.883z
				 M35.892,30.467c-0.08,0.05-0.161,0.09-0.243,0.121c-0.082,0.031-0.194,0.06-0.336,0.086l-0.285,0.053
				c-0.267,0.047-0.459,0.104-0.576,0.171c-0.197,0.114-0.296,0.292-0.296,0.532c0,0.214,0.06,0.369,0.181,0.463
				c0.121,0.096,0.267,0.143,0.439,0.143c0.274,0,0.526-0.079,0.756-0.237s0.351-0.447,0.359-0.866V30.467z"/>
		</g>
		<g>
			<path d="M41.099,29.725c-0.023-0.179-0.083-0.34-0.181-0.483c-0.141-0.193-0.36-0.29-0.656-0.29
				c-0.423,0-0.712,0.209-0.868,0.628c-0.083,0.222-0.124,0.517-0.124,0.885c0,0.351,0.041,0.633,0.124,0.846
				c0.149,0.398,0.432,0.598,0.846,0.598c0.293,0,0.502-0.079,0.625-0.237c0.123-0.158,0.198-0.363,0.225-0.615h1.279
				c-0.029,0.381-0.167,0.741-0.414,1.081c-0.393,0.548-0.975,0.822-1.746,0.822c-0.771,0-1.339-0.229-1.703-0.686
				s-0.545-1.05-0.545-1.778c0-0.822,0.201-1.461,0.603-1.918s0.956-0.686,1.663-0.686c0.601,0,1.093,0.135,1.476,0.404
				s0.609,0.746,0.68,1.428H41.099z"/>
		</g>
		<g>
			<path d="M46.361,28.104c0.334,0.149,0.61,0.386,0.828,0.708c0.196,0.285,0.323,0.615,0.381,0.99
				c0.034,0.22,0.048,0.537,0.042,0.951h-3.489c0.02,0.48,0.187,0.817,0.501,1.011c0.191,0.12,0.421,0.18,0.69,0.18
				c0.285,0,0.517-0.073,0.695-0.22c0.098-0.079,0.184-0.189,0.258-0.33h1.279c-0.034,0.284-0.188,0.573-0.464,0.866
				c-0.429,0.466-1.03,0.699-1.802,0.699c-0.637,0-1.2-0.196-1.687-0.589s-0.731-1.032-0.731-1.918c0-0.83,0.22-1.466,0.66-1.909
				s1.011-0.664,1.713-0.664C45.651,27.879,46.026,27.954,46.361,28.104z M44.487,29.186c-0.177,0.182-0.288,0.429-0.333,0.741
				h2.158c-0.023-0.333-0.134-0.585-0.333-0.757c-0.2-0.172-0.447-0.258-0.743-0.258C44.913,28.912,44.664,29.003,44.487,29.186z"/>
		</g>
		<g>
			<path d="M26.716,36.319l0.855,3.709l0.187,1.032l0.187-1.011l0.732-3.73h1.428l0.77,3.709l0.197,1.032l0.2-0.992l0.864-3.749
				h1.378l-1.822,6.478h-1.296l-0.782-3.788l-0.229-1.253l-0.229,1.253l-0.782,3.788h-1.257l-1.836-6.478H26.716z"/>
		</g>
		<g>
			<path d="M37.349,38.104c0.334,0.149,0.61,0.386,0.828,0.709c0.196,0.284,0.323,0.614,0.381,0.99
				c0.034,0.22,0.048,0.537,0.042,0.95h-3.489c0.02,0.48,0.187,0.817,0.501,1.011c0.191,0.12,0.421,0.181,0.69,0.181
				c0.285,0,0.517-0.073,0.695-0.22c0.098-0.079,0.184-0.189,0.258-0.33h1.279c-0.034,0.284-0.188,0.573-0.464,0.866
				c-0.429,0.466-1.03,0.698-1.802,0.698c-0.637,0-1.2-0.196-1.687-0.589c-0.487-0.394-0.731-1.032-0.731-1.918
				c0-0.83,0.22-1.466,0.66-1.909c0.44-0.442,1.011-0.664,1.713-0.664C36.639,37.879,37.015,37.954,37.349,38.104z M35.475,39.186
				c-0.177,0.183-0.288,0.43-0.333,0.741h2.158c-0.023-0.332-0.134-0.585-0.333-0.757s-0.447-0.258-0.743-0.258
				C35.901,38.912,35.652,39.003,35.475,39.186z"/>
		</g>
		<g>
			<path d="M40.205,41.268c0.026,0.223,0.084,0.381,0.172,0.475c0.156,0.167,0.444,0.25,0.865,0.25c0.248,0,0.444-0.036,0.589-0.109
				c0.146-0.073,0.219-0.184,0.219-0.33c0-0.141-0.059-0.247-0.176-0.32c-0.117-0.073-0.554-0.199-1.31-0.378
				c-0.544-0.135-0.928-0.304-1.15-0.506c-0.223-0.199-0.334-0.486-0.334-0.861c0-0.442,0.174-0.822,0.522-1.141
				c0.348-0.317,0.837-0.477,1.469-0.477c0.599,0,1.087,0.12,1.464,0.358c0.377,0.239,0.594,0.651,0.649,1.237h-1.252
				c-0.018-0.161-0.063-0.289-0.137-0.383c-0.138-0.17-0.373-0.255-0.705-0.255c-0.273,0-0.468,0.043-0.584,0.128
				c-0.116,0.085-0.174,0.185-0.174,0.299c0,0.144,0.062,0.247,0.185,0.312c0.124,0.067,0.559,0.184,1.308,0.348
				c0.499,0.117,0.873,0.294,1.122,0.531c0.246,0.24,0.369,0.541,0.369,0.901c0,0.475-0.177,0.862-0.531,1.162
				c-0.354,0.3-0.9,0.45-1.64,0.45c-0.754,0-1.312-0.159-1.671-0.477c-0.36-0.317-0.54-0.723-0.54-1.215H40.205z"/>
		</g>
		<g>
			<path d="M43.746,38.942v-0.892h0.668v-1.336h1.239v1.336h0.778v0.892h-0.778v2.531c0,0.196,0.025,0.318,0.075,0.367
				c0.05,0.048,0.202,0.072,0.457,0.072c0.038,0,0.078,0,0.121-0.002c0.042-0.001,0.084-0.004,0.125-0.007v0.937l-0.593,0.021
				c-0.592,0.021-0.996-0.082-1.213-0.308c-0.141-0.144-0.211-0.364-0.211-0.663v-2.949H43.746z"/>
		</g>
	</g>
</g>
<g id="Nichols_x5F_House">
	<polyline id="Object_2_" style="&st9;" points="138.149,45.976 142.823,45.976 142.823,51.199 140.348,51.199 140.348,61.37 
		142.823,61.37 142.823,65.769 112.858,65.769 112.858,81.713 153.819,81.713 153.819,65.769 147.358,65.769 147.358,61.508 
		150.794,61.508 150.794,51.199 149.145,51.199 149.145,45.976 178.56,45.976 178.56,30.031 171.413,30.031 171.413,19.585 
		131.277,19.585 131.277,30.031 138.149,30.031 138.149,45.976 	"/>
	<g id="Text_2_">
		<g>
			<path d="M140.535,28.299h1.419l2.571,4.517v-4.517h1.261v6.478h-1.353l-2.637-4.597v4.597h-1.261V28.299z"/>
		</g>
		<g>
			<path d="M148.243,29.415h-1.27v-1.156h1.27V29.415z M146.973,29.986h1.27v4.79h-1.27V29.986z"/>
		</g>
		<g>
			<path d="M152.321,31.704c-0.023-0.179-0.083-0.34-0.181-0.483c-0.141-0.193-0.36-0.29-0.656-0.29
				c-0.423,0-0.712,0.21-0.868,0.629c-0.083,0.222-0.124,0.517-0.124,0.885c0,0.352,0.041,0.633,0.124,0.847
				c0.149,0.398,0.432,0.598,0.846,0.598c0.293,0,0.502-0.079,0.625-0.237c0.123-0.158,0.198-0.363,0.225-0.615h1.279
				c-0.029,0.381-0.167,0.741-0.414,1.081c-0.393,0.548-0.975,0.821-1.746,0.821c-0.771,0-1.339-0.229-1.703-0.686
				s-0.545-1.05-0.545-1.777c0-0.822,0.201-1.461,0.603-1.918s0.956-0.686,1.663-0.686c0.601,0,1.093,0.135,1.476,0.404
				s0.609,0.745,0.68,1.428H152.321z"/>
		</g>
		<g>
			<path d="M157.904,30.013c0.241,0.103,0.438,0.26,0.593,0.471c0.131,0.179,0.211,0.362,0.24,0.552
				c0.029,0.189,0.044,0.498,0.044,0.926v2.815h-1.279v-2.917c0-0.258-0.043-0.467-0.131-0.625
				c-0.113-0.223-0.329-0.334-0.646-0.334c-0.329,0-0.578,0.11-0.748,0.332c-0.17,0.222-0.255,0.537-0.255,0.948v2.596h-1.252V28.32
				h1.252v2.285c0.181-0.278,0.39-0.473,0.628-0.582c0.238-0.11,0.488-0.165,0.75-0.165
				C157.396,29.858,157.664,29.91,157.904,30.013z"/>
		</g>
		<g>
			<path d="M163.954,34.19c-0.404,0.499-1.018,0.748-1.841,0.748s-1.437-0.249-1.841-0.748s-0.606-1.101-0.606-1.803
				c0-0.69,0.202-1.289,0.606-1.796c0.404-0.506,1.018-0.76,1.841-0.76s1.437,0.254,1.841,0.76c0.404,0.507,0.606,1.105,0.606,1.796
				C164.56,33.09,164.358,33.691,163.954,34.19z M162.952,33.498c0.196-0.261,0.294-0.631,0.294-1.11s-0.098-0.849-0.294-1.108
				c-0.196-0.259-0.478-0.388-0.844-0.388s-0.648,0.129-0.846,0.388c-0.198,0.26-0.297,0.629-0.297,1.108s0.099,0.85,0.297,1.11
				s0.479,0.391,0.846,0.391S162.755,33.759,162.952,33.498z"/>
		</g>
		<g>
			<path d="M166.735,34.776h-1.252v-6.478h1.252V34.776z"/>
		</g>
		<g>
			<path d="M168.928,33.247c0.026,0.223,0.084,0.381,0.172,0.475c0.156,0.167,0.444,0.25,0.865,0.25
				c0.248,0,0.444-0.036,0.589-0.109c0.146-0.073,0.219-0.184,0.219-0.33c0-0.141-0.059-0.247-0.176-0.32
				c-0.117-0.073-0.554-0.199-1.31-0.378c-0.544-0.135-0.928-0.304-1.15-0.506c-0.223-0.199-0.334-0.486-0.334-0.861
				c0-0.442,0.174-0.822,0.522-1.141c0.348-0.317,0.837-0.477,1.469-0.477c0.599,0,1.087,0.12,1.464,0.358
				c0.377,0.239,0.594,0.651,0.649,1.237h-1.252c-0.018-0.161-0.063-0.289-0.137-0.383c-0.138-0.17-0.373-0.255-0.705-0.255
				c-0.273,0-0.468,0.043-0.584,0.128c-0.116,0.085-0.174,0.185-0.174,0.299c0,0.144,0.062,0.247,0.185,0.312
				c0.124,0.067,0.559,0.184,1.308,0.348c0.499,0.117,0.873,0.294,1.122,0.531c0.246,0.24,0.369,0.541,0.369,0.901
				c0,0.475-0.177,0.862-0.531,1.162c-0.354,0.3-0.9,0.45-1.64,0.45c-0.754,0-1.312-0.159-1.671-0.477
				c-0.36-0.317-0.54-0.723-0.54-1.215H168.928z"/>
		</g>
		<g>
			<path d="M143.048,44.777v-6.478h1.345v2.47h2.518v-2.47h1.345v6.478h-1.345v-2.892h-2.518v2.892H143.048z"/>
		</g>
		<g>
			<path d="M153.451,44.191c-0.404,0.499-1.018,0.749-1.841,0.749s-1.437-0.25-1.841-0.749s-0.606-1.1-0.606-1.803
				c0-0.69,0.202-1.289,0.606-1.795s1.018-0.76,1.841-0.76s1.437,0.253,1.841,0.76s0.606,1.105,0.606,1.795
				C154.057,43.091,153.855,43.692,153.451,44.191z M152.449,43.499c0.196-0.26,0.294-0.63,0.294-1.11
				c0-0.479-0.098-0.849-0.294-1.108c-0.196-0.259-0.478-0.388-0.844-0.388s-0.648,0.129-0.846,0.388
				c-0.198,0.259-0.297,0.628-0.297,1.108c0,0.48,0.099,0.85,0.297,1.11c0.198,0.261,0.479,0.391,0.846,0.391
				S152.252,43.759,152.449,43.499z"/>
		</g>
		<g>
			<path d="M156.202,39.987v2.887c0,0.272,0.032,0.478,0.096,0.615c0.114,0.243,0.337,0.365,0.669,0.365
				c0.426,0,0.717-0.173,0.875-0.519c0.082-0.188,0.123-0.435,0.123-0.743v-2.606h1.27v4.79h-1.217V44.1
				c-0.012,0.015-0.041,0.059-0.087,0.132c-0.047,0.073-0.103,0.138-0.167,0.193c-0.196,0.176-0.385,0.296-0.568,0.36
				s-0.396,0.097-0.642,0.097c-0.707,0-1.183-0.255-1.428-0.765c-0.138-0.281-0.206-0.696-0.206-1.244v-2.887H156.202z"/>
		</g>
		<g>
			<path d="M161.422,43.248c0.026,0.223,0.084,0.381,0.172,0.475c0.156,0.167,0.444,0.25,0.865,0.25c0.248,0,0.444-0.037,0.589-0.11
				c0.146-0.073,0.219-0.183,0.219-0.33c0-0.141-0.059-0.248-0.176-0.321c-0.117-0.073-0.554-0.199-1.31-0.378
				c-0.544-0.135-0.928-0.303-1.15-0.505c-0.223-0.199-0.334-0.486-0.334-0.861c0-0.442,0.174-0.822,0.522-1.141
				c0.348-0.317,0.837-0.477,1.469-0.477c0.599,0,1.087,0.12,1.464,0.358c0.377,0.239,0.594,0.651,0.649,1.237h-1.252
				c-0.018-0.161-0.063-0.289-0.137-0.382c-0.138-0.17-0.373-0.255-0.705-0.255c-0.273,0-0.468,0.042-0.584,0.127
				c-0.116,0.085-0.174,0.185-0.174,0.299c0,0.144,0.062,0.248,0.185,0.312c0.124,0.067,0.559,0.183,1.308,0.347
				c0.499,0.117,0.873,0.294,1.122,0.532c0.246,0.24,0.369,0.541,0.369,0.901c0,0.475-0.177,0.862-0.531,1.162
				c-0.354,0.3-0.9,0.451-1.64,0.451c-0.754,0-1.312-0.159-1.671-0.477c-0.36-0.317-0.54-0.723-0.54-1.215H161.422z"/>
		</g>
		<g>
			<path d="M168.578,40.084c0.334,0.149,0.61,0.386,0.828,0.708c0.196,0.285,0.323,0.615,0.381,0.99
				c0.034,0.22,0.048,0.537,0.042,0.951h-3.489c0.02,0.48,0.187,0.817,0.501,1.011c0.191,0.12,0.421,0.18,0.69,0.18
				c0.285,0,0.517-0.073,0.695-0.22c0.098-0.079,0.184-0.189,0.258-0.33h1.279c-0.034,0.284-0.188,0.573-0.464,0.866
				c-0.429,0.466-1.03,0.699-1.802,0.699c-0.637,0-1.2-0.196-1.687-0.589s-0.731-1.032-0.731-1.918c0-0.83,0.22-1.466,0.66-1.909
				s1.011-0.664,1.713-0.664C167.868,39.859,168.243,39.934,168.578,40.084z M166.704,41.166c-0.177,0.182-0.288,0.429-0.333,0.741
				h2.158c-0.023-0.333-0.134-0.585-0.333-0.757c-0.2-0.172-0.447-0.258-0.743-0.258C167.13,40.892,166.881,40.983,166.704,41.166z"
				/>
		</g>
	</g>
</g>
<g id="ICA_2_">
	<polyline id="Object_1_" style="&st18;" points="116.435,92.311 116.435,87.435 107.292,87.435 107.292,81.645 153.695,81.645 
		153.677,65.809 147.153,65.809 147.189,61.515 150.654,61.515 150.677,51.265 148.871,51.265 148.866,45.88 167.935,45.88 
		167.935,52.085 178.905,52.085 178.905,87.739 152.393,87.739 152.393,88.958 142.946,88.958 142.946,92.311 116.435,92.311 	"/>
	<g id="Text_1_">
		<g>
			<path d="M161.021,72.097h-1.345v-6.478h1.345V72.097z"/>
		</g>
		<g>
			<path d="M162.906,66.296c0.522-0.533,1.186-0.8,1.991-0.8c1.078,0,1.867,0.357,2.365,1.072c0.275,0.401,0.423,0.804,0.443,1.208
				h-1.354c-0.086-0.311-0.197-0.545-0.332-0.703c-0.241-0.281-0.598-0.422-1.072-0.422c-0.482,0-0.863,0.199-1.141,0.595
				c-0.278,0.397-0.417,0.959-0.417,1.686s0.147,1.271,0.44,1.632c0.294,0.362,0.667,0.543,1.12,0.543
				c0.464,0,0.818-0.155,1.062-0.466c0.135-0.167,0.247-0.417,0.335-0.751h1.345c-0.116,0.706-0.412,1.28-0.889,1.723
				c-0.477,0.442-1.087,0.664-1.833,0.664c-0.921,0-1.646-0.299-2.174-0.896c-0.527-0.601-0.791-1.424-0.791-2.47
				C162.006,67.78,162.306,66.908,162.906,66.296z"/>
		</g>
		<g>
			<path d="M170.639,65.619h1.531l2.292,6.478h-1.468l-0.428-1.332h-2.385l-0.439,1.332h-1.416L170.639,65.619z M170.55,69.649
				h1.659l-0.818-2.549L170.55,69.649z"/>
		</g>
	</g>
</g>
<g id="Bookstore_2_">
	<polyline id="Object" style="&st17;" points="42.454,132.596 42.454,134.904 42.127,134.904 42.127,152.705 18.947,152.705 
		18.947,160.287 16.662,160.287 16.662,174.792 18.947,174.792 18.947,179.407 33.639,179.407 33.639,177.1 42.127,177.1 
		42.127,177.429 42.454,177.429 43.759,177.759 46.371,178.089 51.921,178.089 54.533,177.759 55.839,177.429 56.166,177.429 
		56.166,177.1 64.654,177.1 64.654,179.407 79.345,179.407 79.345,178.748 97.628,178.748 97.628,179.407 112.32,179.407 
		112.32,177.429 129.296,177.429 129.296,178.089 162.924,178.089 162.924,176.44 163.903,176.44 164.23,177.429 166.515,179.737 
		166.842,179.737 167.821,180.396 171.412,180.396 172.718,179.737 174.677,177.759 175.003,177.429 175.657,176.111 
		175.657,172.814 175.003,171.496 172.718,169.188 172.718,168.858 171.739,168.529 171.739,167.54 173.371,167.54 173.371,150.397 
		172.065,150.397 172.065,125.673 173.044,125.673 173.044,122.377 174.351,122.377 174.351,110.839 166.842,110.839 
		166.842,108.861 141.05,108.861 141.05,107.872 111.014,107.872 111.014,109.19 109.708,109.19 109.708,109.521 106.117,109.521 
		106.117,113.476 105.79,113.476 105.79,115.784 108.729,115.784 108.729,120.069 108.076,120.069 108.076,121.058 107.422,121.058 
		107.096,124.025 107.749,124.354 107.422,125.673 107.096,125.673 106.77,125.344 105.137,127.981 105.79,128.311 105.137,129.629 
		104.811,129.629 104.484,129.3 102.199,131.277 102.852,131.937 101.546,132.596 101.219,132.267 98.608,133.585 98.934,133.915 
		98.934,134.245 97.302,134.574 97.302,133.915 94.363,134.245 94.363,135.233 93.384,135.233 93.384,135.563 92.731,135.563 
		92.731,132.926 91.425,132.926 91.425,133.255 85.548,133.255 85.548,132.926 84.243,132.926 84.243,135.563 83.59,135.563 
		83.59,135.233 82.61,135.233 82.61,134.245 79.672,133.915 79.345,134.574 78.04,134.245 78.04,133.915 78.366,133.585 
		75.754,132.267 75.428,132.596 74.122,131.937 74.448,131.277 72.49,129.3 72.163,129.629 71.836,129.629 71.184,128.311 
		71.836,127.981 70.204,125.344 69.877,125.673 69.551,125.673 69.225,124.354 69.877,124.025 69.551,121.058 68.898,121.058 
		68.572,120.069 67.918,120.069 67.918,115.784 71.184,115.784 71.184,113.476 70.857,113.476 70.857,109.521 67.266,109.521 
		67.266,109.19 65.96,109.19 65.96,107.872 24.385,107.872 21.25,108.833 18.667,110.833 17.333,112.917 16.662,115.609 
		16.662,118.421 16.988,118.421 16.988,119.623 16.662,119.623 16.662,132.596 42.454,132.596 	"/>
	<g id="Text">
		<g>
			<path d="M129.238,161.79c0.198,0.275,0.297,0.605,0.297,0.989c0,0.396-0.1,0.713-0.3,0.954c-0.112,0.135-0.277,0.258-0.494,0.369
				c0.331,0.12,0.58,0.311,0.748,0.571c0.168,0.261,0.252,0.577,0.252,0.949c0,0.384-0.096,0.728-0.289,1.033
				c-0.122,0.202-0.275,0.372-0.458,0.51c-0.207,0.158-0.451,0.267-0.732,0.325s-0.586,0.088-0.916,0.088h-2.918V161.1h3.13
				C128.349,161.112,128.909,161.342,129.238,161.79z M125.721,162.225v1.428h1.574c0.281,0,0.51-0.053,0.685-0.161
				c0.175-0.106,0.263-0.296,0.263-0.569c0-0.302-0.116-0.501-0.348-0.598c-0.2-0.067-0.455-0.101-0.765-0.101H125.721z
				 M125.721,164.726v1.727h1.573c0.281,0,0.5-0.038,0.656-0.114c0.284-0.141,0.426-0.41,0.426-0.809
				c0-0.337-0.138-0.568-0.413-0.694c-0.154-0.07-0.369-0.107-0.647-0.11H125.721z"/>
		</g>
		<g>
			<path d="M134.799,166.992c-0.404,0.499-1.018,0.749-1.841,0.749s-1.437-0.25-1.841-0.749s-0.606-1.1-0.606-1.803
				c0-0.69,0.202-1.289,0.606-1.795s1.018-0.76,1.841-0.76s1.437,0.253,1.841,0.76s0.606,1.105,0.606,1.795
				C135.406,165.892,135.204,166.493,134.799,166.992z M133.797,166.299c0.196-0.26,0.294-0.63,0.294-1.11
				c0-0.479-0.098-0.849-0.294-1.108c-0.196-0.259-0.478-0.388-0.844-0.388s-0.648,0.129-0.846,0.388
				c-0.198,0.259-0.297,0.628-0.297,1.108c0,0.48,0.099,0.85,0.297,1.11c0.198,0.261,0.479,0.391,0.846,0.391
				S133.601,166.56,133.797,166.299z"/>
		</g>
		<g>
			<path d="M140.297,166.992c-0.404,0.499-1.018,0.749-1.841,0.749s-1.437-0.25-1.841-0.749s-0.606-1.1-0.606-1.803
				c0-0.69,0.202-1.289,0.606-1.795s1.018-0.76,1.841-0.76s1.437,0.253,1.841,0.76s0.606,1.105,0.606,1.795
				C140.904,165.892,140.702,166.493,140.297,166.992z M139.295,166.299c0.196-0.26,0.294-0.63,0.294-1.11
				c0-0.479-0.098-0.849-0.294-1.108c-0.196-0.259-0.478-0.388-0.844-0.388s-0.648,0.129-0.846,0.388
				c-0.198,0.259-0.297,0.628-0.297,1.108c0,0.48,0.099,0.85,0.297,1.11c0.198,0.261,0.479,0.391,0.846,0.391
				S139.099,166.56,139.295,166.299z"/>
		</g>
		<g>
			<path d="M141.787,161.122h1.23v3.494l1.58-1.807h1.558l-1.717,1.785l1.783,2.983h-1.524l-1.161-2.046l-0.519,0.539v1.507h-1.23
				V161.122z"/>
		</g>
		<g>
			<path d="M147.777,166.048c0.026,0.223,0.084,0.381,0.172,0.475c0.156,0.167,0.444,0.25,0.865,0.25
				c0.248,0,0.444-0.037,0.589-0.11c0.146-0.073,0.219-0.183,0.219-0.33c0-0.141-0.059-0.248-0.176-0.321
				c-0.117-0.073-0.554-0.199-1.31-0.378c-0.544-0.135-0.928-0.303-1.15-0.505c-0.223-0.199-0.334-0.486-0.334-0.861
				c0-0.442,0.174-0.822,0.522-1.141c0.348-0.317,0.837-0.477,1.469-0.477c0.599,0,1.087,0.12,1.464,0.358
				c0.377,0.239,0.594,0.651,0.649,1.237h-1.252c-0.018-0.161-0.063-0.289-0.137-0.382c-0.138-0.17-0.373-0.255-0.705-0.255
				c-0.273,0-0.468,0.042-0.584,0.127c-0.116,0.085-0.174,0.185-0.174,0.299c0,0.144,0.062,0.248,0.185,0.312
				c0.124,0.067,0.559,0.183,1.308,0.347c0.499,0.117,0.873,0.294,1.122,0.532c0.246,0.24,0.369,0.541,0.369,0.901
				c0,0.475-0.177,0.862-0.531,1.162c-0.354,0.3-0.9,0.451-1.64,0.451c-0.754,0-1.312-0.159-1.671-0.477
				c-0.36-0.317-0.54-0.723-0.54-1.215H147.777z"/>
		</g>
		<g>
			<path d="M151.318,163.724v-0.892h0.668v-1.336h1.239v1.336h0.778v0.892h-0.778v2.531c0,0.196,0.025,0.318,0.075,0.367
				s0.202,0.073,0.457,0.073c0.038,0,0.078,0,0.121-0.002c0.042-0.001,0.084-0.003,0.125-0.006v0.936l-0.593,0.022
				c-0.592,0.021-0.996-0.082-1.213-0.308c-0.141-0.144-0.211-0.365-0.211-0.664v-2.949H151.318z"/>
		</g>
		<g>
			<path d="M158.802,166.992c-0.404,0.499-1.018,0.749-1.841,0.749s-1.437-0.25-1.841-0.749s-0.606-1.1-0.606-1.803
				c0-0.69,0.202-1.289,0.606-1.795s1.018-0.76,1.841-0.76s1.437,0.253,1.841,0.76s0.606,1.105,0.606,1.795
				C159.409,165.892,159.207,166.493,158.802,166.992z M157.8,166.299c0.196-0.26,0.294-0.63,0.294-1.11
				c0-0.479-0.098-0.849-0.294-1.108c-0.196-0.259-0.478-0.388-0.844-0.388s-0.648,0.129-0.846,0.388
				c-0.198,0.259-0.297,0.628-0.297,1.108c0,0.48,0.099,0.85,0.297,1.11c0.198,0.261,0.479,0.391,0.846,0.391
				S157.604,166.56,157.8,166.299z"/>
		</g>
		<g>
			<path d="M162.967,162.675c0.016,0.002,0.052,0.004,0.107,0.007v1.283c-0.079-0.009-0.149-0.015-0.211-0.018
				s-0.111-0.004-0.149-0.004c-0.504,0-0.842,0.164-1.015,0.492c-0.097,0.185-0.145,0.469-0.145,0.853v2.29h-1.261v-4.79h1.195
				v0.835c0.193-0.319,0.362-0.538,0.505-0.655c0.234-0.196,0.539-0.294,0.914-0.294
				C162.931,162.673,162.95,162.674,162.967,162.675z"/>
		</g>
		<g>
			<path d="M166.929,162.885c0.334,0.149,0.61,0.386,0.828,0.708c0.196,0.285,0.323,0.615,0.381,0.99
				c0.034,0.22,0.048,0.537,0.042,0.951h-3.489c0.02,0.48,0.187,0.817,0.501,1.011c0.191,0.12,0.421,0.18,0.69,0.18
				c0.285,0,0.517-0.073,0.695-0.22c0.098-0.079,0.184-0.189,0.258-0.33h1.279c-0.034,0.284-0.188,0.573-0.464,0.866
				c-0.429,0.466-1.03,0.699-1.802,0.699c-0.637,0-1.2-0.196-1.687-0.589s-0.731-1.032-0.731-1.918c0-0.83,0.22-1.466,0.66-1.909
				s1.011-0.664,1.713-0.664C166.219,162.66,166.595,162.735,166.929,162.885z M165.055,163.967
				c-0.177,0.182-0.288,0.429-0.333,0.741h2.158c-0.023-0.333-0.134-0.585-0.333-0.757c-0.2-0.172-0.447-0.258-0.743-0.258
				C165.481,163.693,165.232,163.784,165.055,163.967z"/>
		</g>
		<g>
			<path d="M68.786,153.618h-1.345v-6.478h1.345V153.618z"/>
		</g>
		<g>
			<path d="M73.813,149.102c0.313,0.259,0.47,0.689,0.47,1.29v3.226H73v-2.914c0-0.252-0.033-0.445-0.1-0.58
				c-0.123-0.246-0.355-0.369-0.698-0.369c-0.422,0-0.711,0.18-0.868,0.541c-0.082,0.19-0.122,0.434-0.122,0.729v2.593h-1.252
				v-4.781h1.213v0.699c0.161-0.246,0.312-0.423,0.455-0.532c0.257-0.193,0.582-0.29,0.976-0.29
				C73.096,148.713,73.499,148.843,73.813,149.102z"/>
		</g>
		<g>
			<path d="M79.311,149.102c0.313,0.259,0.47,0.689,0.47,1.29v3.226h-1.283v-2.914c0-0.252-0.033-0.445-0.1-0.58
				c-0.123-0.246-0.355-0.369-0.698-0.369c-0.422,0-0.711,0.18-0.868,0.541c-0.082,0.19-0.122,0.434-0.122,0.729v2.593h-1.252
				v-4.781h1.213v0.699c0.161-0.246,0.312-0.423,0.455-0.532c0.257-0.193,0.582-0.29,0.976-0.29
				C78.594,148.713,78.997,148.843,79.311,149.102z"/>
		</g>
		<g>
			<path d="M85.343,150.704c0.233-0.029,0.4-0.066,0.5-0.11c0.18-0.076,0.27-0.195,0.27-0.356c0-0.196-0.069-0.332-0.207-0.407
				s-0.341-0.112-0.608-0.112c-0.3,0-0.513,0.073-0.637,0.22c-0.089,0.108-0.148,0.255-0.178,0.439h-1.208
				c0.026-0.419,0.144-0.763,0.353-1.033c0.333-0.422,0.903-0.633,1.712-0.633c0.527,0,0.995,0.104,1.404,0.312
				c0.409,0.208,0.613,0.601,0.613,1.178v2.197c0,0.152,0.003,0.337,0.009,0.554c0.009,0.164,0.034,0.275,0.075,0.334
				s0.103,0.107,0.185,0.145v0.185h-1.362c-0.038-0.097-0.064-0.188-0.079-0.272s-0.026-0.182-0.035-0.29
				c-0.174,0.188-0.375,0.347-0.601,0.479c-0.271,0.155-0.578,0.233-0.919,0.233c-0.436,0-0.796-0.124-1.081-0.372
				c-0.285-0.247-0.427-0.598-0.427-1.052c0-0.589,0.229-1.015,0.686-1.279c0.251-0.144,0.62-0.246,1.107-0.308L85.343,150.704z
				 M86.109,151.289c-0.08,0.05-0.161,0.09-0.243,0.121c-0.082,0.031-0.194,0.06-0.336,0.086l-0.285,0.053
				c-0.267,0.047-0.459,0.104-0.576,0.171c-0.197,0.114-0.296,0.292-0.296,0.532c0,0.214,0.06,0.369,0.181,0.463
				c0.121,0.096,0.267,0.143,0.439,0.143c0.274,0,0.526-0.079,0.756-0.237s0.351-0.447,0.359-0.866V151.289z"/>
		</g>
		<g>
			<path d="M87.959,149.764v-0.892h0.668v-1.336h1.239v1.336h0.778v0.892h-0.778v2.531c0,0.196,0.025,0.318,0.075,0.367
				s0.202,0.073,0.457,0.073c0.038,0,0.078,0,0.121-0.002c0.042-0.001,0.084-0.003,0.125-0.006v0.936l-0.593,0.022
				c-0.592,0.021-0.996-0.082-1.213-0.308c-0.141-0.144-0.211-0.365-0.211-0.664v-2.949H87.959z"/>
		</g>
		<g>
			<path d="M98.399,150.814c-0.379,0.316-0.92,0.475-1.625,0.475h-1.349v2.329h-1.345v-6.478h2.781c0.641,0,1.152,0.167,1.534,0.501
				s0.572,0.851,0.572,1.551C98.968,149.957,98.778,150.498,98.399,150.814z M97.366,148.48c-0.171-0.144-0.411-0.215-0.72-0.215
				h-1.22v1.907h1.22c0.309,0,0.549-0.078,0.72-0.233s0.257-0.401,0.257-0.738S97.537,148.624,97.366,148.48z"/>
		</g>
		<g>
			<path d="M103.074,148.925c0.334,0.149,0.61,0.386,0.828,0.708c0.196,0.285,0.323,0.615,0.381,0.99
				c0.034,0.22,0.048,0.537,0.042,0.951h-3.489c0.02,0.48,0.187,0.817,0.501,1.011c0.191,0.12,0.421,0.18,0.69,0.18
				c0.285,0,0.517-0.073,0.695-0.22c0.098-0.079,0.184-0.189,0.258-0.33h1.279c-0.034,0.284-0.188,0.573-0.464,0.866
				c-0.429,0.466-1.03,0.699-1.802,0.699c-0.637,0-1.2-0.196-1.687-0.589s-0.731-1.032-0.731-1.918c0-0.83,0.22-1.466,0.66-1.909
				s1.011-0.664,1.713-0.664C102.364,148.7,102.739,148.775,103.074,148.925z M101.2,150.007c-0.177,0.182-0.288,0.429-0.333,0.741
				h2.158c-0.023-0.333-0.134-0.585-0.333-0.757c-0.2-0.172-0.447-0.258-0.743-0.258C101.626,149.733,101.377,149.824,101.2,150.007
				z"/>
		</g>
		<g>
			<path d="M108.82,149.102c0.313,0.259,0.47,0.689,0.47,1.29v3.226h-1.283v-2.914c0-0.252-0.033-0.445-0.1-0.58
				c-0.123-0.246-0.355-0.369-0.698-0.369c-0.422,0-0.711,0.18-0.868,0.541c-0.082,0.19-0.122,0.434-0.122,0.729v2.593h-1.252
				v-4.781h1.213v0.699c0.161-0.246,0.312-0.423,0.455-0.532c0.257-0.193,0.582-0.29,0.976-0.29
				C108.103,148.713,108.506,148.843,108.82,149.102z"/>
		</g>
		<g>
			<path d="M114.318,149.102c0.313,0.259,0.47,0.689,0.47,1.29v3.226h-1.283v-2.914c0-0.252-0.033-0.445-0.1-0.58
				c-0.123-0.246-0.355-0.369-0.698-0.369c-0.422,0-0.711,0.18-0.868,0.541c-0.082,0.19-0.122,0.434-0.122,0.729v2.593h-1.252
				v-4.781h1.213v0.699c0.161-0.246,0.312-0.423,0.455-0.532c0.257-0.193,0.582-0.29,0.976-0.29
				C113.601,148.713,114.004,148.843,114.318,149.102z"/>
		</g>
	</g>
</g>
</svg>
